<svg xmlns="http://www.w3.org/2000/svg" width="563" height="81" viewBox="0 0 563 81">
  <g fill="none">
    <g fill="#1A1A1A">
      <g transform="translate(-376 -10)translate(376 10)">
        <path class="a" d="M460.2 26.3L459.2 26.3 456.8 17.4 457.9 17.4 459.2 22.6C459.4 23.4 459.6 24.1 459.7 24.8L459.7 24.8C459.9 24.1 460 23.4 460.2 22.6L461.5 17.4 462.6 17.4 463.8 22.6C464 23.4 464.2 24.1 464.3 24.8L464.3 24.8C464.5 24 464.6 23.4 464.8 22.7L466.1 17.4 467.1 17.4 464.8 26.3 463.8 26.3 462 18.9 462 18.9 460.2 26.3ZM469.6 18.6L468.5 18.6 468.5 17.6 469.6 17.6 469.6 18.6ZM469.6 26.3L468.6 26.3 468.6 20 469.6 20 469.6 26.3ZM473.7 26.4C472.4 26.4 471.9 25.9 471.9 24.8L471.9 20.8 470.8 20.8 470.8 20 471.9 20 471.9 17.7 473 17.7 473 20 474.6 20 474.6 20.8 473 20.8 473 24.6C473 25.2 473.2 25.6 474 25.6 474.2 25.6 474.4 25.5 474.6 25.5L474.6 26.3C474.4 26.4 474 26.4 473.7 26.4ZM477 26.3L476 26.3 476 17.4 477 17.4 477 20.9C477.6 20.4 478.4 19.8 479.4 19.8 480.6 19.8 481.3 20.5 481.3 21.7L481.3 26.3 480.3 26.3 480.3 22C480.3 21.1 479.9 20.7 479.1 20.7 478.3 20.7 477.7 21.1 477 21.8L477 26.3ZM489 26.5C487.3 26.5 486.1 25.6 485.6 24.2L486.5 23.8C486.9 25 487.8 25.5 489 25.5 490.3 25.5 491.1 25 491.1 24.1 491.1 23.2 490.6 22.8 488.9 22.2 487 21.7 485.9 21.2 485.9 19.6 485.9 18.3 487.1 17.3 488.8 17.3 490.5 17.3 491.4 18.1 491.9 19.3L491.1 19.7C490.6 18.7 489.8 18.2 488.7 18.2 487.6 18.2 486.9 18.8 486.9 19.5 486.9 20.5 487.5 20.8 489.3 21.3 491.1 21.9 492.1 22.5 492.1 24 492.1 25.5 490.8 26.5 489 26.5ZM495.6 26.4C494.4 26.4 493.7 25.8 493.7 24.6L493.7 20 494.7 20 494.7 24.3C494.7 25.2 495.1 25.6 495.9 25.6 496.7 25.6 497.3 25.2 497.9 24.6L497.9 20 499 20 499 26.3 497.9 26.3 497.9 25.4C497.4 25.9 496.6 26.4 495.6 26.4ZM503.7 25.6C504.8 25.6 505.5 24.8 505.5 23.1 505.5 21.5 504.7 20.7 503.7 20.7 503 20.7 502.4 21.1 501.8 21.7L501.8 24.6C502.4 25.2 503 25.6 503.7 25.6ZM501.8 28.7L500.8 28.7 500.8 20 501.8 20 501.8 20.9C502.3 20.3 503 19.8 503.9 19.8 505.4 19.8 506.5 20.9 506.5 23.1 506.5 25.3 505.4 26.4 503.8 26.4 503 26.4 502.4 26.1 501.8 25.5L501.8 28.7ZM510.9 25.6C512 25.6 512.7 24.8 512.7 23.1 512.7 21.5 511.9 20.7 510.9 20.7 510.1 20.7 509.6 21.1 509 21.7L509 24.6C509.6 25.2 510.2 25.6 510.9 25.6ZM509 28.7L508 28.7 508 20 509 20 509 20.9C509.5 20.3 510.2 19.8 511.1 19.8 512.6 19.8 513.7 20.9 513.7 23.1 513.7 25.3 512.6 26.4 511 26.4 510.2 26.4 509.6 26.1 509 25.5L509 28.7ZM517.8 26.4C516.2 26.4 514.8 25.3 514.8 23.1 514.8 21 516.2 19.8 517.8 19.8 519.3 19.8 520.7 21 520.7 23.1 520.7 25.3 519.3 26.4 517.8 26.4ZM517.8 25.6C519 25.6 519.7 24.6 519.7 23.1 519.7 21.8 519 20.7 517.8 20.7 516.6 20.7 515.9 21.7 515.9 23.1 515.9 24.5 516.5 25.6 517.8 25.6ZM523.2 26.3L522.2 26.3 522.2 20 523.2 20 523.2 21.2 523.2 21.2C523.7 20.4 524.4 19.8 525.7 19.8L525.8 19.8 525.7 20.8C525.7 20.8 525.5 20.8 525.4 20.8 524.4 20.8 523.7 21.3 523.2 22.2L523.2 26.3ZM529.2 26.4C527.9 26.4 527.4 25.9 527.4 24.8L527.4 20.8 526.3 20.8 526.3 20 527.4 20 527.4 17.7 528.5 17.7 528.5 20 530.1 20 530.1 20.8 528.5 20.8 528.5 24.6C528.5 25.2 528.7 25.6 529.5 25.6 529.7 25.6 529.9 25.5 530.1 25.5L530.1 26.3C529.9 26.4 529.5 26.4 529.2 26.4ZM535.5 26.3L534.5 26.3 534.5 17.4 539.8 17.4 539.8 18.4 535.5 18.4 535.5 21.3 538.7 21.3 538.7 22.2 535.5 22.2 535.5 26.3ZM542.2 26.3L541.1 26.3 541.1 20 542.2 20 542.2 21.2 542.2 21.2C542.7 20.4 543.4 19.8 544.6 19.8L544.8 19.8 544.7 20.8C544.7 20.8 544.4 20.8 544.4 20.8 543.4 20.8 542.6 21.3 542.2 22.2L542.2 26.3ZM548.5 26.4C547 26.4 545.6 25.3 545.6 23.1 545.6 21 547 19.8 548.5 19.8 550.1 19.8 551.5 21 551.5 23.1 551.5 25.3 550.1 26.4 548.5 26.4ZM548.5 25.6C549.7 25.6 550.4 24.6 550.4 23.1 550.4 21.8 549.8 20.7 548.5 20.7 547.3 20.7 546.6 21.7 546.6 23.1 546.6 24.5 547.2 25.6 548.5 25.6ZM554 26.3L552.9 26.3 552.9 20 554 20 554 20.9C554.6 20.3 555.3 19.8 556.2 19.8 557.3 19.8 557.8 20.3 558 21 558.6 20.4 559.4 19.8 560.3 19.8 561.6 19.8 562.2 20.6 562.2 21.7L562.2 26.3 561.1 26.3 561.1 22C561.1 21.1 560.9 20.7 560 20.7 559.3 20.7 558.7 21.1 558.1 21.8L558.1 26.3 557 26.3 557 22C557 21.1 556.8 20.7 555.9 20.7 555.2 20.7 554.6 21.1 554 21.8L554 26.3ZM460.7 42.8L459.6 42.8 459.6 34.9 456.8 34.9 456.8 33.9 463.5 33.9 463.5 34.9 460.7 34.9 460.7 42.8ZM465.8 42.8L464.8 42.8 464.8 33.9 465.8 33.9 465.8 37.4C466.4 36.9 467.2 36.3 468.2 36.3 469.4 36.3 470.1 37 470.1 38.2L470.1 42.8 469 42.8 469 38.5C469 37.6 468.7 37.2 467.9 37.2 467.1 37.2 466.5 37.6 465.8 38.3L465.8 42.8ZM474.3 42.9C472.8 42.9 471.5 41.9 471.5 39.6 471.5 37.3 473 36.3 474.3 36.3 475.8 36.3 477 37.4 477 39.7L477 39.9 472.5 39.9C472.5 41.3 473.4 42.1 474.4 42.1 475.3 42.1 475.8 41.7 476.3 41.1L476.9 41.6C476.3 42.4 475.5 42.9 474.3 42.9ZM472.5 39.1L476 39.1C475.9 38 475.4 37.2 474.3 37.2 473.5 37.2 472.7 37.8 472.5 39.1ZM482.4 42.8L481.5 42.8 481.5 33.9 482.6 33.9 487.2 41 487.3 41 487.3 33.9 488.3 33.9 488.3 42.8 487.3 42.8 482.5 35.6 482.4 35.6 482.4 42.8ZM492.8 42.9C491.3 42.9 489.9 41.9 489.9 39.6 489.9 37.3 491.4 36.3 492.8 36.3 494.3 36.3 495.4 37.4 495.4 39.7L495.4 39.9 490.9 39.9C491 41.3 491.8 42.1 492.8 42.1 493.8 42.1 494.3 41.7 494.7 41.1L495.3 41.6C494.8 42.4 494 42.9 492.8 42.9ZM491 39.1L494.4 39.1C494.3 38 493.8 37.2 492.8 37.2 491.9 37.2 491.1 37.8 491 39.1ZM499.1 42.8L498.2 42.8 496.2 36.5 497.3 36.5 498.1 39.5C498.3 40.2 498.5 40.8 498.7 41.6L498.7 41.6C498.9 40.7 499 40.2 499.3 39.4L500.1 36.5 501 36.5 501.8 39.5C502 40.3 502.1 40.7 502.3 41.6L502.3 41.6C502.6 40.7 502.7 40.3 502.9 39.5L503.8 36.5 504.7 36.5 502.8 42.8 501.8 42.8 500.5 37.9 500.5 37.9 499.1 42.8ZM512.1 42.8L511.1 42.8 511.1 38.9 508.1 33.9 509.2 33.9 511.6 38 514 33.9 515.1 33.9 512.1 38.9 512.1 42.8ZM518.9 42.9C517.3 42.9 515.9 41.8 515.9 39.6 515.9 37.5 517.3 36.3 518.9 36.3 520.4 36.3 521.8 37.5 521.8 39.6 521.8 41.8 520.4 42.9 518.9 42.9ZM518.9 42.1C520.1 42.1 520.8 41.1 520.8 39.6 520.8 38.3 520.1 37.2 518.9 37.2 517.7 37.2 517 38.2 517 39.6 517 41 517.6 42.1 518.9 42.1ZM524.3 42.8L523.3 42.8 523.3 36.5 524.3 36.5 524.3 37.7 524.3 37.7C524.8 36.9 525.6 36.3 526.8 36.3L526.9 36.3 526.8 37.3C526.8 37.3 526.6 37.3 526.5 37.3 525.5 37.3 524.8 37.8 524.3 38.7L524.3 42.8ZM529.1 42.8L528.1 42.8 528.1 33.9 529.1 33.9 529.1 39.6 531.9 36.5 533.1 36.5 531 38.7 533.4 42.8 532.2 42.8 530.4 39.5 529.1 40.9 529.1 42.8ZM540.9 43C538.6 43 537.1 41.2 537.1 38.3 537.1 35.6 538.7 33.8 540.9 33.8 542.8 33.8 543.8 34.9 544.2 36.5L543.2 36.8C542.8 35.4 542.2 34.7 540.9 34.7 539.2 34.7 538.2 36.1 538.2 38.3 538.2 40.7 539.2 42 540.9 42 542.2 42 542.9 41.3 543.3 39.9L544.3 40.1C543.9 41.9 542.7 43 540.9 43ZM547 35.1L545.9 35.1 545.9 34.1 547 34.1 547 35.1ZM546.9 42.8L545.9 42.8 545.9 36.5 546.9 36.5 546.9 42.8ZM551.1 42.9C549.7 42.9 549.3 42.4 549.3 41.3L549.3 37.3 548.2 37.3 548.2 36.5 549.3 36.5 549.3 34.2 550.3 34.2 550.3 36.5 552 36.5 552 37.3 550.3 37.3 550.3 41.1C550.3 41.7 550.5 42.1 551.3 42.1 551.5 42.1 551.8 42 552 42L552 42.8C551.8 42.9 551.4 42.9 551.1 42.9ZM553.7 45.3C553.2 45.3 552.8 45.2 552.5 45.1L552.8 44.3C552.9 44.3 553.3 44.4 553.7 44.4 554.4 44.4 554.7 44.1 554.9 43.5L555.2 42.9 552.7 36.5 553.8 36.5 555.7 41.6 555.7 41.6 557.5 36.5 558.6 36.5 555.9 43.5C555.4 44.7 555 45.3 553.7 45.3ZM459.8 59.3L457.5 59.3 457.5 50.4 459.8 50.4C462.7 50.4 464.3 51.9 464.3 54.9 464.3 57.9 462.6 59.3 459.8 59.3ZM458.5 51.4L458.5 58.4 460 58.4C462.1 58.4 463.2 57.3 463.2 54.9 463.2 52.5 462.1 51.4 459.9 51.4L458.5 51.4ZM468.4 59.4C466.9 59.4 465.5 58.4 465.5 56.1 465.5 53.8 467.1 52.8 468.4 52.8 469.9 52.8 471 53.9 471 56.2L471 56.4 466.6 56.4C466.6 57.8 467.4 58.6 468.5 58.6 469.4 58.6 469.9 58.2 470.4 57.6L471 58.1C470.4 58.9 469.6 59.4 468.4 59.4ZM466.6 55.6L470.1 55.6C470 54.5 469.4 53.7 468.4 53.7 467.5 53.7 466.7 54.3 466.6 55.6ZM475.4 58.6C476.5 58.6 477.2 57.8 477.2 56.1 477.2 54.5 476.4 53.7 475.4 53.7 474.7 53.7 474.1 54.1 473.5 54.7L473.5 57.6C474.1 58.2 474.7 58.6 475.4 58.6ZM473.5 61.7L472.5 61.7 472.5 53 473.5 53 473.5 53.9C474 53.3 474.7 52.8 475.6 52.8 477.1 52.8 478.2 53.9 478.2 56.1 478.2 58.3 477.1 59.4 475.5 59.4 474.7 59.4 474.1 59.1 473.5 58.5L473.5 61.7ZM481.4 58.6C482.2 58.6 483 58.2 483.6 57.7L483.6 55.9C481.1 56.3 480.3 56.9 480.3 57.7 480.3 58.3 480.7 58.6 481.4 58.6ZM481.1 59.4C480 59.4 479.3 58.8 479.3 57.8 479.3 56.5 480.4 55.6 483.6 55.2L483.6 54.9C483.6 54.1 483.1 53.7 482.4 53.7 481.4 53.7 480.7 54.1 480.1 54.7L479.5 54C480.3 53.4 481.2 52.8 482.5 52.8 484 52.8 484.6 53.6 484.6 55L484.6 57.8C484.6 58.5 484.6 59 484.8 59.3L483.7 59.3C483.6 59.1 483.6 58.8 483.6 58.4 482.8 59.1 482.1 59.4 481.1 59.4ZM487.4 59.3L486.3 59.3 486.3 53 487.4 53 487.4 54.2 487.4 54.2C487.9 53.4 488.6 52.8 489.8 52.8L490 52.8 489.9 53.8C489.9 53.8 489.6 53.8 489.6 53.8 488.6 53.8 487.8 54.3 487.4 55.2L487.4 59.3ZM493.4 59.4C492 59.4 491.6 58.9 491.6 57.8L491.6 53.8 490.5 53.8 490.5 53 491.6 53 491.6 50.7 492.6 50.7 492.6 53 494.3 53 494.3 53.8 492.6 53.8 492.6 57.6C492.6 58.2 492.8 58.6 493.6 58.6 493.8 58.6 494.1 58.5 494.3 58.5L494.3 59.3C494.1 59.4 493.7 59.4 493.4 59.4ZM496.7 59.3L495.7 59.3 495.7 53 496.7 53 496.7 53.9C497.3 53.3 498 52.8 499 52.8 500 52.8 500.5 53.3 500.7 54 501.3 53.4 502.1 52.8 503.1 52.8 504.3 52.8 504.9 53.6 504.9 54.7L504.9 59.3 503.9 59.3 503.9 55C503.9 54.1 503.6 53.7 502.8 53.7 502 53.7 501.5 54.1 500.8 54.8L500.8 59.3 499.8 59.3 499.8 55C499.8 54.1 499.5 53.7 498.7 53.7 498 53.7 497.4 54.1 496.7 54.8L496.7 59.3ZM509.2 59.4C507.7 59.4 506.3 58.4 506.3 56.1 506.3 53.8 507.8 52.8 509.2 52.8 510.7 52.8 511.8 53.9 511.8 56.2L511.8 56.4 507.3 56.4C507.4 57.8 508.2 58.6 509.2 58.6 510.2 58.6 510.7 58.2 511.2 57.6L511.8 58.1C511.2 58.9 510.4 59.4 509.2 59.4ZM507.4 55.6L510.8 55.6C510.7 54.5 510.2 53.7 509.2 53.7 508.3 53.7 507.5 54.3 507.4 55.6ZM514.3 59.3L513.3 59.3 513.3 53 514.3 53 514.3 53.9C514.9 53.4 515.7 52.8 516.7 52.8 517.9 52.8 518.6 53.5 518.6 54.7L518.6 59.3 517.5 59.3 517.5 55C517.5 54.1 517.2 53.7 516.4 53.7 515.6 53.7 515 54.1 514.3 54.8L514.3 59.3ZM522.6 59.4C521.2 59.4 520.8 58.9 520.8 57.8L520.8 53.8 519.7 53.8 519.7 53 520.8 53 520.8 50.7 521.8 50.7 521.8 53 523.5 53 523.5 53.8 521.8 53.8 521.8 57.6C521.8 58.2 522 58.6 522.8 58.6 523 58.6 523.3 58.5 523.5 58.5L523.5 59.3C523.3 59.4 522.9 59.4 522.6 59.4ZM530.3 59.4C528.7 59.4 527.3 58.3 527.3 56.1 527.3 54 528.7 52.8 530.3 52.8 531.8 52.8 533.2 54 533.2 56.1 533.2 58.3 531.8 59.4 530.3 59.4ZM530.3 58.6C531.5 58.6 532.2 57.6 532.2 56.1 532.2 54.8 531.5 53.7 530.3 53.7 529.1 53.7 528.4 54.7 528.4 56.1 528.4 57.5 529 58.6 530.3 58.6ZM536.2 59.3L535.2 59.3 535.2 53.8 534.1 53.8 534.1 53 535.2 53 535.2 52.1C535.2 51.1 535.7 50.4 537.1 50.4 537.3 50.4 537.6 50.4 537.7 50.4L537.7 51.3C537.6 51.3 537.4 51.3 537.2 51.3 536.6 51.3 536.2 51.5 536.2 52.1L536.2 53 537.6 53 537.6 53.8 536.2 53.8 536.2 59.3ZM463.2 75.8L457.5 75.8 457.5 66.9 462.9 66.9 462.9 67.9 458.5 67.9 458.5 70.7 461.8 70.7 461.8 71.6 458.5 71.6 458.5 74.9 463.2 74.9 463.2 75.8ZM467.1 75.1C467.8 75.1 468.4 74.7 468.9 74.1L468.9 71.2C468.4 70.6 467.8 70.2 467.1 70.2 466 70.2 465.3 71 465.3 72.7 465.3 74.3 466.1 75.1 467.1 75.1ZM466.8 75.9C465.4 75.9 464.3 74.9 464.3 72.7 464.3 70.5 465.4 69.3 467 69.3 467.7 69.3 468.5 69.7 468.9 70.3L468.9 66.9 470 66.9 470 74.3C470 75 470 75.5 470.2 75.8L469.1 75.8C469 75.6 468.9 75.2 468.9 74.9 468.4 75.5 467.8 75.9 466.8 75.9ZM473.6 75.9C472.4 75.9 471.7 75.3 471.7 74.1L471.7 69.5 472.8 69.5 472.8 73.8C472.8 74.7 473.1 75.1 473.9 75.1 474.7 75.1 475.3 74.7 476 74.1L476 69.5 477 69.5 477 75.8 476 75.8 476 74.9C475.4 75.4 474.6 75.9 473.6 75.9ZM481.3 75.9C479.9 75.9 478.5 74.8 478.5 72.6 478.5 70.3 480 69.3 481.4 69.3 482.8 69.3 483.5 70.2 483.9 71.1L483 71.5C482.7 70.7 482.2 70.2 481.4 70.2 480.5 70.2 479.5 70.9 479.5 72.6 479.5 74.2 480.3 75.1 481.4 75.1 482.2 75.1 482.7 74.7 483.1 73.8L483.9 74.1C483.4 75.2 482.7 75.9 481.3 75.9ZM487 75.1C487.8 75.1 488.6 74.7 489.1 74.2L489.1 72.4C486.7 72.8 485.9 73.4 485.9 74.2 485.9 74.8 486.3 75.1 487 75.1ZM486.7 75.9C485.6 75.9 484.9 75.3 484.9 74.3 484.9 73 486 72.1 489.1 71.7L489.1 71.4C489.1 70.6 488.7 70.2 487.9 70.2 487 70.2 486.3 70.6 485.7 71.2L485.1 70.5C485.8 69.9 486.8 69.3 488.1 69.3 489.6 69.3 490.2 70.1 490.2 71.5L490.2 74.3C490.2 75 490.2 75.5 490.3 75.8L489.3 75.8C489.2 75.6 489.1 75.3 489.1 74.9 488.4 75.6 487.6 75.9 486.7 75.9ZM494.1 75.9C492.8 75.9 492.4 75.4 492.4 74.3L492.4 70.3 491.3 70.3 491.3 69.5 492.4 69.5 492.4 67.2 493.4 67.2 493.4 69.5 495.1 69.5 495.1 70.3 493.4 70.3 493.4 74.1C493.4 74.7 493.6 75.1 494.4 75.1 494.6 75.1 494.9 75 495 75L495 75.8C494.9 75.9 494.5 75.9 494.1 75.9ZM497.6 68.1L496.5 68.1 496.5 67.1 497.6 67.1 497.6 68.1ZM497.6 75.8L496.5 75.8 496.5 69.5 497.6 69.5 497.6 75.8ZM502 75.9C500.5 75.9 499.1 74.8 499.1 72.6 499.1 70.5 500.5 69.3 502 69.3 503.6 69.3 505 70.5 505 72.6 505 74.8 503.6 75.9 502 75.9ZM502 75.1C503.2 75.1 503.9 74.1 503.9 72.6 503.9 71.3 503.3 70.2 502 70.2 500.8 70.2 500.1 71.2 500.1 72.6 500.1 74 500.8 75.1 502 75.1ZM507.5 75.8L506.4 75.8 506.4 69.5 507.5 69.5 507.5 70.4C508 69.9 508.8 69.3 509.9 69.3 511.1 69.3 511.7 70 511.7 71.2L511.7 75.8 510.7 75.8 510.7 71.5C510.7 70.6 510.3 70.2 509.5 70.2 508.8 70.2 508.2 70.6 507.5 71.3L507.5 75.8Z"/>
        <polygon points="434.5 76.8 436.4 76.8 436.4 16.2 434.5 16.2"/>
          <path class="a" d="M295 60.9C294.7 61.6 294.4 62.4 294.4 64.3L294.4 67.2 300.6 67.2 300.6 64.6C300.6 62.6 300.3 61.7 300 60.9L303.3 60.9C303 61.9 302.7 62.6 302.7 64.8L302.7 71.5C302.7 73.9 303 74.6 303.3 75.5L300 75.5C300.3 74.6 300.6 73.9 300.6 71.6L300.6 69 294.4 69 294.4 71.4C294.4 73.7 294.7 74.6 294.9 75.5L291.7 75.5C291.9 74.8 292.2 73.9 292.2 71.7L292.2 64.7C292.2 62.6 291.9 61.6 291.7 60.9L295 60.9"/>
          <path class="a" d="M319.1 61L318 63.2C316.3 62.5 315.5 62.3 314 62.3L314 67.4 318.5 67.4 317.3 69.4C315.6 68.9 315.1 68.8 314 68.8L314 74.1C315.8 74.1 316.8 74.1 319.9 73L318.8 75.4 311.3 75.4C311.6 74.6 311.8 73.6 311.8 71.7L311.8 64.6C311.8 63.6 311.7 62.2 311.3 61L319.1 61"/>
          <path class="a" d="M327.6 71.7C327.6 72.9 327.5 74 327.2 75.4L330.1 75.4C329.7 73.9 329.7 73.4 329.7 72.3L329.7 68.7C332.7 72.7 333.6 73.8 335.5 75.4L337.5 75.4C335.8 73.4 334 71.2 332.7 68.9 333.4 68.6 335.4 67.4 335.4 65.1 335.4 63.1 333.7 60.9 330 61L327.2 61C327.4 61.5 327.6 62.3 327.6 64L327.6 71.7ZM329.7 62.2C332.6 62.5 333.2 64.2 333.2 65.3 333.2 67.5 331.1 68.1 329.7 68.5L329.7 62.2 329.7 62.2Z"/>
          <path class="a" d="M346.8 61C346.5 61.8 346.2 62.6 346.2 64.8L346.2 71.4C346.2 73.1 346.3 73.9 346.8 75.4L343.5 75.4C343.8 74.5 344.1 73.7 344.1 71.3L344.1 64.4C344.1 62.8 343.9 61.9 343.5 61L346.8 61"/>
          <path class="a" d="M363.6 61L362.6 63.2C361 62.5 360.5 62.4 358.8 62.4L358.8 72C358.8 73.1 358.9 74.3 359.2 75.4L356.3 75.4C356.5 74.5 356.7 73.5 356.7 71.7L356.7 62.4C355.7 62.4 354.9 62.4 352.1 63.4L352.9 61 363.6 61"/>
          <path class="a" d="M373 60.9L372.9 60.9 367.4 72C366.2 74.4 365.7 74.9 365.3 75.4L368.8 75.4C368.7 74.3 369.3 73 369.5 72.5L370.2 70.9 375.3 70.9 376.1 72.9C376.6 74.1 376.7 74.8 376.7 75.4L380.1 75.4C379.6 74.7 378.9 73.7 377.9 71.5L373 60.9ZM372.9 65.4L374.5 69.2 371 69.2 372.9 65.4 372.9 65.4Z"/>
          <path class="a" d="M396.4 63.7C395.5 63.2 393.9 62.4 391.9 62.4 389.4 62.4 386.7 64.2 386.7 68.1 386.7 71.2 388.8 73.8 392.5 73.8 393.8 73.8 394.4 73.5 395.1 73.3L395.1 71.7C395.1 69.4 394.6 68.8 394.1 68.1L397.6 68.1C397.5 68.5 397.2 69.2 397.2 70.6L397.2 72.3C397.2 73.3 397.2 73.6 397.5 74.6 396.5 75 395.1 75.5 392.4 75.5 386 75.5 384.5 71.2 384.5 68.5 384.5 66.7 385.1 64.8 386.3 63.3 387.8 61.5 389.7 60.8 392.7 60.8 394.5 60.8 395.6 61.1 396.4 61.3L396.4 63.7"/>
          <path class="a" d="M413.1 61L412.1 63.2C410.4 62.5 409.6 62.3 408.1 62.3L408.1 67.4 412.6 67.4 411.4 69.4C409.7 68.9 409.2 68.8 408.1 68.8L408.1 74.1C409.9 74.1 410.9 74.1 414 73L412.9 75.4 405.4 75.4C405.6 74.6 405.9 73.6 405.9 71.7L405.9 64.6C405.9 63.6 405.8 62.2 405.4 61L413.1 61"/>
          <path class="a" d="M294 16.3C294.3 16.9 294.5 17.4 295.3 18.3L299.2 23.2 303.5 17.9C303.9 17.4 304.1 17.2 304.5 16.4L307.4 16.4C306.8 17.1 306.2 17.8 306.2 19.9L306.2 27C306.2 28 306.2 29.4 306.9 30.8L303.4 30.8C303.9 29.7 304 28.6 304 27.2L304 20.3 299.2 26.4 294.4 20.3 294.4 27.6C294.4 27.8 294.4 29.4 295 30.8L291.6 30.8C291.8 30.1 292.2 29.2 292.2 26.9L292.2 17.9 290.8 16.3 294 16.3"/>
          <path class="a" d="M319.7 16.3C319.4 17.3 319.2 17.8 319.2 19.8L319.2 25.1C319.2 26 319.3 26.5 319.5 27 320.2 28.8 321.9 29.3 322.8 29.3 324.4 29.3 325.7 28.1 326.1 26.8 326.2 26.5 326.3 26.3 326.3 25.4L326.3 19.6C326.3 19 326.3 17.4 325.7 16.3L328.8 16.3C328.6 16.9 328.4 17.4 328.4 19.3L328.4 27C328.4 28 328.4 28.8 328.8 30.8L326.3 30.8C326.4 30 326.4 29.8 326.4 29.4 325.5 29.9 323.8 30.9 321.8 30.9 318.8 30.9 317.1 28.6 317.1 25.3L317.1 19.6C317.1 17.4 316.9 16.9 316.6 16.3L319.7 16.3"/>
          <path class="a" d="M346.5 19.1C345.9 18.6 345.1 18 343.8 18 342.6 18 341.6 18.8 341.6 19.9 341.6 21.3 342.8 22 344.6 23 346.7 24.2 347.2 25.4 347.2 26.8 347.2 29.2 345.4 30.9 342.4 30.9 341.3 30.9 340.6 30.7 339.9 30.5L339.9 27.4C340.6 28.2 341.4 29.2 342.7 29.2 344 29.2 344.9 28.2 344.9 27.2 344.9 26.2 344.1 25.5 343.7 25.3 340.6 23.3 339.4 22.5 339.4 20.3 339.4 18.1 341.3 16.1 343.6 16.1 344.9 16.1 345.8 16.6 346.5 16.8L346.5 19.1"/>
          <path class="a" d="M365.3 16.3L364.2 18.6C362.6 17.8 361.7 17.6 360.2 17.7L360.2 22.7 364.7 22.7 363.5 24.8C361.8 24.3 361.3 24.2 360.2 24.1L360.2 29.4C362 29.4 363.1 29.4 366.1 28.4L365.1 30.8 357.5 30.8C357.8 29.9 358.1 28.9 358.1 27.1L358.1 20C358.1 19 357.9 17.6 357.5 16.3L365.3 16.3"/>
          <path class="a" d="M379.1 16.3C378.8 17.3 378.6 17.8 378.6 19.8L378.6 25.1C378.6 26 378.7 26.5 378.9 27 379.6 28.8 381.3 29.3 382.2 29.3 383.8 29.3 385.1 28.1 385.5 26.8 385.6 26.5 385.6 26.3 385.6 25.4L385.6 19.6C385.6 19 385.6 17.4 385.1 16.3L388.2 16.3C388 16.9 387.8 17.4 387.8 19.3L387.8 27C387.8 28 387.8 28.8 388.2 30.8L385.6 30.8C385.7 30 385.7 29.8 385.7 29.4 384.9 29.9 383.2 30.9 381.2 30.9 378.2 30.9 376.5 28.6 376.5 25.3L376.5 19.6C376.5 17.4 376.3 16.9 376 16.3L379.1 16.3"/>
          <path class="a" d="M401.2 16.3C401.4 16.9 401.7 17.4 402.4 18.3L406.4 23.2 410.7 17.9C411.1 17.4 411.3 17.2 411.7 16.4L414.5 16.4C413.9 17.1 413.4 17.8 413.4 19.9L413.4 27C413.4 28 413.4 29.4 414 30.8L410.6 30.8C411 29.7 411.2 28.6 411.2 27.2L411.2 20.3 406.4 26.4 401.5 20.3 401.5 27.6C401.5 27.8 401.5 29.4 402.1 30.8L398.7 30.8C399 30.1 399.3 29.2 399.3 26.9L399.3 17.9 397.9 16.3 401.2 16.3"/>
          <path class="a" d="M323.2 38.7L328.2 38.7C327.8 39.7 327.8 41.6 327.8 43.4L327.8 47.9C327.8 52.2 327.4 53.2 327.2 53.8 326.3 56.1 323.9 56.2 323.6 56.2 323.2 56.2 322.6 56 322.4 56 324.4 55 325.7 53.9 325.7 48.1L325.6 44C325.6 43.1 325.6 41.4 325.7 40.4L324.8 40.3C324.1 40.3 323.2 40.5 322.6 40.6L323.2 38.7"/>
          <path class="a" d="M344.3 38.7L343.2 40.9C341.6 40.2 340.7 40 339.2 40L339.2 45.1 343.7 45.1 342.5 47.1C340.8 46.6 340.3 46.5 339.2 46.5L339.2 51.8C341 51.8 342.1 51.8 345.1 50.7L344.1 53.1 336.5 53.1C336.8 52.3 337 51.3 337 49.4L337 42.3C337 41.3 336.9 39.9 336.5 38.7L344.3 38.7"/>
          <path class="a" d="M353.7 38.5C353.7 38.7 353.6 39.1 353.6 39.3 353.6 40 354 41.5 354.2 42.2L355.9 48.9 359.4 38.6 359.5 38.6 363 48.9 364.8 41.9C365 41.2 365.3 40 365.3 39.3L365.3 38.6 368.1 38.6C367.6 39.6 367.5 39.9 367.2 41L364 53.1 362.3 53.1 359.4 44.7 356.6 53.1 354.9 53.1 352 42.3C351.9 41.9 351.4 39.9 350.8 38.6L353.7 38.5"/>
          <path class="a" d="M377.2 38.7C377 39.5 376.7 40.3 376.7 42.5L376.7 49.1C376.7 50.8 376.8 51.6 377.2 53.1L374 53.1C374.3 52.2 374.5 51.4 374.5 49L374.5 42.1C374.5 40.5 374.4 39.6 374 38.7L377.2 38.7"/>
          <path class="a" d="M392.8 41.4C392.1 40.9 391.3 40.3 390.1 40.3 388.8 40.3 387.8 41.1 387.8 42.2 387.8 43.6 389 44.3 390.8 45.4 392.9 46.6 393.5 47.7 393.5 49.1 393.5 51.5 391.6 53.2 388.6 53.2 387.5 53.2 386.8 53 386.2 52.8L386.2 49.8C386.8 50.5 387.7 51.5 389 51.5 390.2 51.5 391.1 50.5 391.1 49.5 391.1 48.5 390.3 47.9 389.9 47.6 386.8 45.7 385.6 44.9 385.6 42.7 385.6 40.4 387.5 38.5 389.9 38.5 391.2 38.5 392.1 38.9 392.8 39.2L392.8 41.4"/>
          <path class="a" d="M405.5 38.6C405.2 39.3 404.9 40.1 404.9 41.9L404.9 44.9 411.1 44.9 411.1 42.3C411.1 40.3 410.8 39.4 410.5 38.6L413.8 38.6C413.5 39.6 413.2 40.3 413.2 42.5L413.2 49.2C413.2 51.6 413.5 52.3 413.8 53.1L410.5 53.1C410.8 52.2 411.1 51.6 411.1 49.2L411.1 46.7 404.9 46.7 404.9 49.1C404.9 51.4 405.2 52.3 405.4 53.1L402.2 53.1C402.4 52.5 402.7 51.6 402.7 49.4L402.7 42.3C402.7 40.3 402.4 39.3 402.2 38.6L405.5 38.6"/>
          <path class="a" d="M297.3 49.9C295.4 49.9 293.4 48.2 293.4 45.5 293.4 43.8 294.5 41.9 296.6 41.9 298.9 41.9 300.5 44.2 300.5 46.3 300.5 47.7 299.5 49.9 297.3 49.9ZM297.1 40.3C293.3 40.3 291.2 43.5 291.2 45.8 291.2 48.6 293.3 51.5 296.9 51.5 300.2 51.5 302.6 49.1 302.6 45.9 302.6 43.2 300.9 40.3 297.1 40.3L297.1 40.3Z"/>
          <path class="a" d="M309.6 41.9C310.7 41.9 311.2 42 312.2 42.4L312.4 42.5 313.6 40.4 307.1 40.4 307.2 40.7C307.3 41.3 307.5 41.8 307.5 43.3L307.5 48.2C307.5 49.5 307.3 50.5 307.2 51.1L307.1 51.4 310 51.4 309.9 51.1C309.7 50.4 309.6 49.7 309.6 48.8L309.6 46.7C310.6 46.7 311.2 46.8 311.9 47.1L312.1 47.2 313.2 45.1 309.6 45.1 309.6 41.9"/>
        <path class="a" d="M294.7 1.7L293.5 5.1 295.9 5.1 294.8 1.7 294.7 1.7ZM292.5 8L291.7 8 294.3 0.6 295.2 0.6 297.9 8 296.9 8 296.2 5.9 293.3 5.9 292.5 8ZM302.3 1.4L302.3 4 303.9 4C305.1 4 305.7 3.7 305.7 2.7 305.7 1.7 305.1 1.4 303.9 1.4L302.3 1.4ZM302.3 8L301.4 8 301.4 0.6 304 0.6C305.6 0.6 306.6 1.3 306.6 2.7 306.6 3.9 305.9 4.5 304.9 4.7L306.7 8 305.7 8 304 4.8 302.3 4.8 302.3 8ZM310.1 8.1C308.9 8.1 307.7 7.2 307.7 5.4 307.7 3.5 309 2.6 310.1 2.6 311.4 2.6 312.3 3.5 312.3 5.4L312.3 5.6 308.6 5.6C308.6 6.8 309.3 7.4 310.2 7.4 311 7.4 311.4 7.1 311.8 6.6L312.3 7C311.8 7.7 311.1 8.1 310.1 8.1ZM308.6 4.9L311.5 4.9C311.4 4 311 3.3 310.1 3.3 309.4 3.3 308.7 3.8 308.6 4.9ZM315.3 8.1C314.4 8.1 313.6 7.7 313.2 7.2L313.7 6.7C314.1 7.1 314.6 7.4 315.4 7.4 316.2 7.4 316.6 7.1 316.6 6.6 316.6 6.1 316.2 5.9 315.3 5.7 314.1 5.4 313.4 5.1 313.4 4.1 313.4 3.3 314.1 2.6 315.2 2.6 316.2 2.6 316.8 2.9 317.2 3.4L316.8 4C316.4 3.6 315.9 3.3 315.3 3.3 314.5 3.3 314.2 3.7 314.2 4 314.2 4.5 314.6 4.7 315.4 4.9 316.6 5.2 317.5 5.5 317.5 6.6 317.5 7.6 316.5 8.1 315.3 8.1ZM320.8 8.1C319.6 8.1 318.4 7.2 318.4 5.4 318.4 3.6 319.5 2.6 320.8 2.6 322.1 2.6 323.3 3.6 323.3 5.4 323.3 7.2 322.1 8.1 320.8 8.1ZM320.8 7.4C321.8 7.4 322.4 6.6 322.4 5.4 322.4 4.3 321.9 3.4 320.8 3.4 319.8 3.4 319.3 4.2 319.3 5.4 319.3 6.5 319.8 7.4 320.8 7.4ZM326 8.1C325 8.1 324.5 7.5 324.5 6.5L324.5 2.7 325.3 2.7 325.3 6.4C325.3 7.1 325.6 7.4 326.3 7.4 326.9 7.4 327.5 7.1 328 6.5L328 2.7 328.9 2.7 328.9 8 328 8 328 7.2C327.5 7.7 326.9 8.1 326 8.1ZM331.3 8L330.4 8 330.4 2.7 331.3 2.7 331.3 3.7 331.3 3.7C331.7 3.1 332.3 2.6 333.3 2.6L333.4 2.6 333.4 3.4C333.3 3.4 333.1 3.4 333.1 3.4 332.3 3.4 331.6 3.9 331.3 4.6L331.3 8ZM336.4 8.1C335.2 8.1 334.1 7.2 334.1 5.4 334.1 3.4 335.3 2.6 336.5 2.6 337.7 2.6 338.3 3.3 338.6 4.1L337.9 4.4C337.6 3.7 337.2 3.4 336.5 3.4 335.7 3.4 335 3.9 335 5.4 335 6.7 335.6 7.4 336.5 7.4 337.1 7.4 337.6 7.1 337.9 6.3L338.6 6.6C338.2 7.5 337.6 8.1 336.4 8.1ZM341.8 8.1C340.6 8.1 339.5 7.2 339.5 5.4 339.5 3.5 340.7 2.6 341.8 2.6 343.1 2.6 344 3.5 344 5.4L344 5.6 340.3 5.6C340.3 6.8 341 7.4 341.9 7.4 342.7 7.4 343.1 7.1 343.5 6.6L344 7C343.5 7.7 342.8 8.1 341.8 8.1ZM340.3 4.9L343.2 4.9C343.2 4 342.7 3.3 341.8 3.3 341.1 3.3 340.5 3.8 340.3 4.9ZM349.7 8L347.8 8 347.8 0.6 349.7 0.6C352.1 0.6 353.4 1.8 353.4 4.3 353.4 6.8 352.1 8 349.7 8ZM348.6 1.4L348.6 7.2 349.8 7.2C351.6 7.2 352.6 6.4 352.6 4.3 352.6 2.3 351.6 1.4 349.8 1.4L348.6 1.4ZM356.9 8.1C355.6 8.1 354.5 7.2 354.5 5.4 354.5 3.5 355.7 2.6 356.9 2.6 358.1 2.6 359.1 3.5 359.1 5.4L359.1 5.6 355.3 5.6C355.4 6.8 356 7.4 356.9 7.4 357.7 7.4 358.1 7.1 358.5 6.6L359 7C358.5 7.7 357.8 8.1 356.9 8.1ZM355.3 4.9L358.2 4.9C358.2 4 357.7 3.3 356.8 3.3 356.1 3.3 355.5 3.8 355.3 4.9ZM362.5 8L361.7 8 359.7 2.7 360.6 2.7 362.1 7 362.1 7 363.6 2.7 364.5 2.7 362.5 8ZM367.5 8.1C366.3 8.1 365.1 7.2 365.1 5.4 365.1 3.5 366.4 2.6 367.5 2.6 368.8 2.6 369.7 3.5 369.7 5.4L369.7 5.6 366 5.6C366 6.8 366.7 7.4 367.6 7.4 368.3 7.4 368.8 7.1 369.2 6.6L369.7 7C369.2 7.7 368.5 8.1 367.5 8.1ZM366 4.9L368.9 4.9C368.8 4 368.4 3.3 367.5 3.3 366.8 3.3 366.1 3.8 366 4.9ZM371.9 8L371 8 371 0.6 371.9 0.6 371.9 8ZM375.6 8.1C374.3 8.1 373.2 7.2 373.2 5.4 373.2 3.6 374.3 2.6 375.6 2.6 376.9 2.6 378.1 3.6 378.1 5.4 378.1 7.2 376.9 8.1 375.6 8.1ZM375.6 7.4C376.6 7.4 377.2 6.6 377.2 5.4 377.2 4.3 376.7 3.4 375.6 3.4 374.6 3.4 374 4.2 374 5.4 374 6.5 374.5 7.4 375.6 7.4ZM381.7 7.4C382.6 7.4 383.2 6.8 383.2 5.4 383.2 4 382.5 3.4 381.7 3.4 381.1 3.4 380.6 3.7 380.1 4.2L380.1 6.6C380.6 7.1 381.1 7.4 381.7 7.4ZM380.1 10L379.3 10 379.3 2.7 380.1 2.7 380.1 3.5C380.5 3 381.1 2.6 381.9 2.6 383.1 2.6 384 3.5 384 5.4 384 7.2 383.1 8.1 381.8 8.1 381.1 8.1 380.6 7.8 380.1 7.3L380.1 10ZM387.4 8.1C386.1 8.1 385 7.2 385 5.4 385 3.5 386.3 2.6 387.4 2.6 388.6 2.6 389.6 3.5 389.6 5.4L389.6 5.6 385.8 5.6C385.9 6.8 386.6 7.4 387.4 7.4 388.2 7.4 388.6 7.1 389 6.6L389.5 7C389 7.7 388.4 8.1 387.4 8.1ZM385.9 4.9L388.7 4.9C388.7 4 388.2 3.3 387.4 3.3 386.6 3.3 386 3.8 385.9 4.9ZM392.9 7.4C393.5 7.4 394 7.1 394.4 6.6L394.4 4.2C393.9 3.6 393.4 3.4 392.9 3.4 392 3.4 391.4 4 391.4 5.4 391.4 6.7 392 7.4 392.9 7.4ZM392.7 8.1C391.4 8.1 390.5 7.2 390.5 5.4 390.5 3.5 391.5 2.6 392.8 2.6 393.4 2.6 394 2.9 394.4 3.4L394.4 0.6 395.3 0.6 395.3 6.7C395.3 7.4 395.3 7.7 395.4 8L394.5 8C394.5 7.8 394.4 7.5 394.4 7.3 394 7.7 393.4 8.1 392.7 8.1ZM402.1 8L399.3 8 399.3 0.6 401.9 0.6C403.5 0.6 404.5 1.2 404.5 2.5 404.5 3.5 403.8 4 403.1 4.2L403.1 4.2C404 4.4 404.7 4.9 404.7 6 404.7 7.2 403.8 8 402.1 8ZM400.1 1.4L400.1 3.8 401.8 3.8C403 3.8 403.6 3.5 403.6 2.6 403.6 1.8 403.1 1.4 401.9 1.4L400.1 1.4ZM400.1 4.6L400.1 7.2 402.1 7.2C403.3 7.2 403.8 6.8 403.8 5.9 403.8 5 403.1 4.6 401.9 4.6L400.1 4.6ZM406.3 10C405.9 10 405.6 10 405.3 9.9L405.5 9.2C405.7 9.3 406 9.3 406.3 9.3 406.9 9.3 407.1 9.1 407.3 8.6L407.5 8 405.5 2.7 406.4 2.7 408 7 408 7 409.5 2.7 410.4 2.7 408.1 8.6C407.8 9.5 407.4 10 406.3 10ZM412.5 3.8L411.5 3.8 411.5 2.7 412.5 2.7 412.5 3.8ZM412.5 8L411.5 8 411.5 7 412.5 7 412.5 8Z"/>
        <polygon points="269.5 76.8 271.4 76.8 271.4 16.2 269.5 16.2"/>
          <path class="a" d="M104.4 16.5L104.4 16.5C103.3 17.1 102.6 18.2 102.6 19.6L102.6 34.5 102.5 34.5 90.6 19.8 90.6 31.1C90.6 32.4 91.3 33.6 92.4 34.1L92.4 34.2 87.7 34.2 87.7 34.1C88.8 33.6 89.5 32.4 89.5 31.1L89.5 19.6C89.5 18.2 88.8 17.1 87.7 16.5L87.7 16.5 93 16.5 101.6 27 101.6 19.6C101.6 18.2 100.9 17.1 99.7 16.5L99.7 16.5 104.4 16.5Z"/>
          <path class="a" d="M105.7 34.5C106.9 33.9 107.6 32.7 107.6 31.4L107.6 19.6C107.6 18.3 106.9 17.1 105.7 16.5L105.7 16.5 119.1 16.5 119.5 22 119.4 22C118.4 19.1 117.1 17.4 114.9 17.4L111.6 17.4 111.6 24.2 112.7 24.2C114.4 24.2 115.1 23.5 116 21.6L116 21.6 116 28.4 116 28.4C115.2 26.2 114.4 25.2 112.7 25.2L111.6 25.2 111.6 33.6 114.9 33.6C117.5 33.6 118.8 31.5 119.9 28.5L119.9 28.5 119.5 34.5 105.7 34.5 105.7 34.5Z"/>
          <path class="a" d="M145.7 16.5L145.7 16.5C144.8 17.2 144.2 18.3 143.5 20L137.9 34.5 137.8 34.5 133.1 23.1 128.4 34.5 128.3 34.5 122.5 20.4C121.5 18.1 120.8 17 119.9 16.5L119.9 16.5 127.9 16.5 127.9 16.5C126.5 17.1 125.9 18.1 126.5 19.8L129.9 28.4 132.6 21.8 132 20.4C131 18.1 130.2 17 129.4 16.5L129.4 16.5 137.4 16.5 137.4 16.5C136 17.1 135.4 18.1 136.1 19.8L139.3 28.3 142.5 19.8C143.2 18.1 142.5 17 141.2 16.5L141.2 16.5 145.7 16.5Z"/>
          <path class="a" d="M165 16.5L165 16.5C164.2 17.2 163.4 18.5 162.5 20.1L159.4 26 159.4 31.4C159.4 32.7 160.1 33.9 161.3 34.5L161.3 34.5 153.4 34.5 153.4 34.5C154.6 33.9 155.4 32.7 155.4 31.4L155.4 26.5 152.4 20.5C151.3 18.2 150.5 17 149.6 16.5L149.6 16.5 157.7 16.5 157.7 16.5C156.3 17.1 155.7 18.1 156.5 19.8L158.9 24.9 161.6 19.8C162.4 18.2 162 17.1 160.5 16.5L160.5 16.5 165 16.5Z"/>
          <path class="a" d="M176.3 27.1C176.3 21.6 173.5 17.4 171.2 17.4 169.8 17.4 168 19.4 168 23.9 168 29.4 170.7 33.6 173 33.6 174.5 33.6 176.3 31.6 176.3 27.1M163.7 25.5C163.7 19.5 168.3 16.5 172.1 16.5 175.5 16.5 180.5 19.3 180.5 25.5 180.5 31.5 176 34.5 172.1 34.5 168.7 34.5 163.7 31.7 163.7 25.5"/>
          <path class="a" d="M187.6 17.3L187.6 24.9C188 24.9 188.5 25 189 25 190.6 25 192.1 24.1 192.1 21.6 192.1 19.1 190.3 17.3 188.1 17.3L187.6 17.3ZM198.5 34.5L198.5 34.5 193.3 34.5 189.9 28.5C188.7 26.3 188.3 25.8 187.6 25.7L187.6 31.4C187.6 32.7 188.3 33.9 189.5 34.5L189.5 34.5 181.8 34.5 181.8 34.5C182.9 33.9 183.7 32.7 183.7 31.4L183.7 19.6C183.7 18.3 182.9 17.1 181.8 16.5L181.8 16.5 190.7 16.5C193.3 16.5 196.1 18 196.1 21.3 196.1 23.4 194.9 24.9 192.4 25.5L195.5 30.5C196.8 32.7 197.7 34 198.5 34.5Z"/>
          <path class="a" d="M215.3 34.5L215.3 34.5 208 34.5 208 34.5C209.1 33.8 208.9 32.6 208.1 31.4L204.1 25.4 204.1 31.4C204.1 32.7 204.8 33.9 205.9 34.5L205.9 34.5 198.5 34.5 198.5 34.5C199.7 33.9 200.4 32.7 200.4 31.4L200.4 19.6C200.4 18.3 199.7 17.1 198.5 16.5L198.5 16.5 205.9 16.5 205.9 16.5C204.8 17.1 204.1 18.3 204.1 19.6L204.1 24.6 209.1 19.8C210.5 18.4 210.1 17.5 208.4 16.5L208.4 16.5 215.1 16.5 215.1 16.5C214.3 16.9 212.6 17.8 210.2 20L206.9 23.1 211.9 30.4C213.3 32.4 214.4 33.9 215.3 34.5"/>
          <path class="a" d="M220.5 18.4C220.5 20.1 218.5 22.2 216.3 22.9L216.2 22.9C217.1 22.2 217.9 21.1 218.2 20 216.6 20.1 215.3 19.3 215.3 18.2 215.3 17.3 216.5 16.5 217.9 16.5 219.3 16.5 220.5 17.2 220.5 18.4"/>
          <path class="a" d="M224.3 34C223.2 34 222.6 34.2 222.1 34.5L222.1 27.6 222.1 27.6C223.2 29.8 225.2 33.5 229 33.5 230.8 33.5 232 32.6 232 30.8 232 29.1 229.9 28.3 226.8 27.2 222.8 25.9 221.8 24.2 221.8 21.9 221.8 18 225.1 16.5 227.8 16.5 229.9 16.5 230.9 16.8 232.4 16.8 232.8 16.8 233.2 16.8 233.5 16.7L233.8 22.6 233.8 22.6C231.8 19.3 229.9 17.4 227.5 17.4 225.8 17.4 224.4 18.4 224.4 20.2 224.4 21.9 225.9 22.5 229.1 23.7 232.5 24.8 234.6 26.2 234.6 29.1 234.6 33.3 231.3 34.5 228.7 34.5 227.2 34.5 225.6 34 224.3 34"/>
          <path class="a" d="M103.8 40.2L103.8 52C103.8 53.4 104.6 54.6 105.7 55.1L105.7 55.1 98 55.1 98 55.1C99.2 54.6 99.9 53.4 99.9 52L99.9 45.8 93.5 45.8 93.5 52C93.5 53.4 94.2 54.6 95.4 55.1L95.4 55.1 87.7 55.1 87.7 55.1C88.8 54.6 89.6 53.4 89.6 52L89.6 40.2C89.6 38.9 88.8 37.7 87.7 37.2L87.7 37.1 95.4 37.1 95.4 37.2C94.2 37.7 93.5 38.9 93.5 40.2L93.5 44.9 99.9 44.9 99.9 40.2C99.9 38.9 99.2 37.7 98 37.2L98 37.1 105.7 37.1 105.7 37.2C104.6 37.7 103.8 38.9 103.8 40.2"/>
          <path class="a" d="M118.2 47.7C118.2 42.2 115.5 38 113.2 38 111.8 38 110 40 110 44.5 110 50 112.7 54.3 115 54.3 116.4 54.3 118.2 52.2 118.2 47.7M105.7 46.2C105.7 40.2 110.3 37.1 114 37.1 117.5 37.1 122.5 39.9 122.5 46.1 122.5 52.1 118 55.1 114.1 55.1 110.7 55.1 105.7 52.3 105.7 46.2"/>
          <path class="a" d="M140.5 48.1L140 55.1 125.1 55.1 125.1 55.1C126.3 54.6 127 53.4 127 52L127 40.2C127 38.9 126.3 37.7 125.1 37.2L125.1 37.1 133 37.1 133 37.2C131.8 37.7 131.1 38.9 131.1 40.2L131.1 54.2 134.4 54.2C137.9 54.2 139.4 51.2 140.5 48.1L140.5 48.1Z"/>
          <path class="a" d="M153.1 47.7C153.1 42.2 150.3 38 148 38 146.6 38 144.8 40 144.8 44.5 144.8 50 147.5 54.3 149.8 54.3 151.3 54.3 153.1 52.2 153.1 47.7M140.5 46.2C140.5 40.2 145.1 37.1 148.8 37.1 152.3 37.1 157.3 39.9 157.3 46.1 157.3 52.1 152.8 55.1 148.9 55.1 145.5 55.1 140.5 52.3 140.5 46.2"/>
          <path class="a" d="M159.9 46.1C159.9 40.1 164.6 37.1 169.1 37.1 170.9 37.1 171.7 37.3 173.2 37.3 173.7 37.3 174.1 37.3 174.4 37.2L174.7 43.2 174.7 43.2C172.7 39.9 170.5 38 168.3 38 166.1 38 164.1 39.7 164.1 44.3 164.1 49.1 166.8 51.9 170.1 51.9 171.8 51.9 173.5 51.2 175.3 49.1L175.3 49.1C174.2 52.7 172 55.1 168.3 55.1 164.8 55.1 159.9 52.2 159.9 46.1"/>
          <path class="a" d="M183.2 49.3L180.6 42.9 178.2 49.3 183.2 49.3ZM190.8 55.1L190.8 55.1 182.9 55.1 182.9 55.1C184.3 54.6 184.8 53.5 184.2 51.8L183.5 50.2 177.9 50.2 177.3 51.8C176.6 53.6 177.1 54.6 178.5 55.1L178.5 55.1 174 55.1 174 55.1C174.9 54.4 175.6 53.3 176.3 51.6L182.1 37.1 182.2 37.1 188.1 51.2C189.1 53.5 189.9 54.6 190.8 55.1Z"/>
          <path class="a" d="M191.4 49.4L191.4 40.2C191.4 38.8 190.7 37.7 189.5 37.2L189.5 37.1 197.3 37.1 197.3 37.2C196.2 37.7 195.4 38.8 195.4 40.2L195.4 49C195.4 52.3 196.9 53.7 199.3 53.7 201.8 53.7 203.3 52.1 203.3 49L203.3 40.2C203.3 38.8 202.5 37.7 201.3 37.2L201.3 37.1 206.3 37.1 206.3 37.2C205.1 37.7 204.4 38.8 204.4 40.2L204.4 49C204.4 53.4 201.7 55.1 198.2 55.1 194.3 55.1 191.4 53.2 191.4 49.4"/>
          <path class="a" d="M208.8 54.6C207.7 54.6 207.1 54.8 206.6 55.1L206.6 48.2 206.7 48.2C207.8 50.4 209.7 54.1 213.5 54.1 215.3 54.1 216.5 53.2 216.5 51.4 216.5 49.7 214.4 48.9 211.3 47.8 207.3 46.5 206.3 44.9 206.3 42.5 206.3 38.6 209.7 37.1 212.3 37.1 214.4 37.1 215.4 37.5 216.9 37.5 217.3 37.5 217.7 37.4 218 37.3L218.4 43.3 218.3 43.3C216.3 39.9 214.4 38.1 212 38.1 210.4 38.1 208.9 39 208.9 40.8 208.9 42.5 210.5 43.1 213.7 44.3 217 45.4 219.2 46.8 219.2 49.7 219.2 53.9 215.8 55.1 213.3 55.1 211.7 55.1 210.1 54.6 208.8 54.6"/>
          <path class="a" d="M224.4 55.1C225.6 54.6 226.3 53.4 226.3 52L226.3 38.1 224.7 38.1C222.8 38.1 221.6 39.2 220.5 41.8L220.5 41.8 220.9 37.1 235.5 37.1 235.9 41.8 235.9 41.8C234.8 39.2 233.6 38.1 231.6 38.1L230.1 38.1 230.1 52C230.1 53.4 230.8 54.6 231.9 55.1L231.9 55.1 224.4 55.1 224.4 55.1Z"/>
          <path class="a" d="M87.7 66.8C87.7 60.7 92.4 57.7 96.9 57.7 98.7 57.7 99.5 58 101 58 101.5 58 101.9 57.9 102.2 57.8L102.5 63.8 102.5 63.8C100.5 60.6 98.3 58.6 96.1 58.6 93.9 58.6 91.9 60.4 91.9 64.9 91.9 69.7 94.6 72.5 97.9 72.5 99.6 72.5 101.3 71.9 103.1 69.7L103.1 69.7C102 73.3 99.8 75.8 96.1 75.8 92.6 75.8 87.7 72.8 87.7 66.8"/>
          <path class="a" d="M105 70L105 60.8C105 59.5 104.3 58.3 103.1 57.8L103.1 57.7 111 57.7 111 57.8C109.8 58.3 109 59.5 109 60.8L109 69.6C109 73 110.5 74.4 112.9 74.4 115.5 74.4 116.9 72.7 116.9 69.6L116.9 60.8C116.9 59.5 116.1 58.3 115 57.8L115 57.7 119.9 57.7 119.9 57.8C118.7 58.3 118 59.5 118 60.8L118 69.7C118 74.1 115.3 75.8 111.8 75.8 107.9 75.8 105 73.8 105 70"/>
          <path class="a" d="M125.7 58.6L125.7 66.1C126.1 66.2 126.6 66.2 127.1 66.2 128.7 66.2 130.2 65.3 130.2 62.9 130.2 60.4 128.4 58.6 126.2 58.6L125.7 58.6ZM136.7 75.7L136.7 75.8 131.4 75.8 128 69.8C126.8 67.5 126.4 67 125.7 67L125.7 72.6C125.7 74 126.4 75.2 127.6 75.7L127.6 75.8 119.9 75.8 119.9 75.7C121.1 75.2 121.8 74 121.8 72.6L121.8 60.9C121.8 59.5 121.1 58.3 119.9 57.8L119.9 57.7 128.8 57.7C131.4 57.7 134.3 59.3 134.3 62.6 134.3 64.6 133 66.2 130.5 66.8L133.6 71.8C134.9 74 135.8 75.3 136.7 75.7Z"/>
          <path class="a" d="M142.5 58.6L142.5 66.1C142.9 66.2 143.4 66.2 143.9 66.2 145.5 66.2 147 65.3 147 62.9 147 60.4 145.1 58.6 142.9 58.6L142.5 58.6ZM153.4 75.7L153.4 75.8 148.2 75.8 144.7 69.8C143.5 67.5 143.2 67 142.5 67L142.5 72.6C142.5 74 143.2 75.2 144.3 75.7L144.3 75.8 136.7 75.8 136.7 75.7C137.8 75.2 138.5 74 138.5 72.6L138.5 60.9C138.5 59.5 137.8 58.3 136.7 57.8L136.7 57.7 145.6 57.7C148.2 57.7 151 59.3 151 62.6 151 64.6 149.7 66.2 147.2 66.8L150.3 71.8C151.7 74 152.6 75.3 153.4 75.7Z"/>
          <path class="a" d="M153.4 75.7C154.6 75.2 155.3 74 155.3 72.6L155.3 60.9C155.3 59.5 154.6 58.3 153.4 57.8L153.4 57.7 161.2 57.7 161.2 57.8C160 58.3 159.3 59.5 159.3 60.9L159.3 72.6C159.3 74 160 75.2 161.2 75.7L161.2 75.8 153.4 75.8 153.4 75.7Z"/>
          <path class="a" d="M162.4 66.8C162.4 60.7 167.2 57.7 171.7 57.7 173.5 57.7 174.3 58 175.7 58 176.3 58 176.7 57.9 177 57.8L177.3 63.8 177.3 63.8C175.2 60.6 173.1 58.6 170.9 58.6 168.7 58.6 166.7 60.4 166.7 64.9 166.7 69.7 169.3 72.5 172.6 72.5 174.4 72.5 176.1 71.9 177.9 69.7L177.9 69.7C176.8 73.3 174.5 75.8 170.9 75.8 167.4 75.8 162.4 72.8 162.4 66.8"/>
          <path class="a" d="M179.8 70L179.8 60.8C179.8 59.5 179.1 58.3 177.9 57.8L177.9 57.7 185.7 57.7 185.7 57.8C184.6 58.3 183.8 59.5 183.8 60.8L183.8 69.6C183.8 73 185.3 74.4 187.7 74.4 190.2 74.4 191.7 72.7 191.7 69.6L191.7 60.8C191.7 59.5 190.9 58.3 189.7 57.8L189.7 57.7 194.7 57.7 194.7 57.8C193.5 58.3 192.8 59.5 192.8 60.8L192.8 69.7C192.8 74.1 190.1 75.8 186.6 75.8 182.7 75.8 179.8 73.8 179.8 70"/>
          <path class="a" d="M210.1 68.8L209.6 75.8 194.7 75.8 194.7 75.7C195.9 75.2 196.6 74 196.6 72.6L196.6 60.9C196.6 59.5 195.9 58.3 194.7 57.8L194.7 57.7 202.7 57.7 202.7 57.8C201.5 58.3 200.7 59.5 200.7 60.9L200.7 74.8 204 74.8C207.5 74.8 209 71.8 210.1 68.8L210.1 68.8Z"/>
          <path class="a" d="M212 70L212 60.8C212 59.5 211.3 58.3 210.1 57.8L210.1 57.7 218 57.7 218 57.8C216.8 58.3 216 59.5 216 60.8L216 69.6C216 73 217.5 74.4 219.9 74.4 222.5 74.4 223.9 72.7 223.9 69.6L223.9 60.8C223.9 59.5 223.2 58.3 222 57.8L222 57.7 226.9 57.7 226.9 57.8C225.7 58.3 225 59.5 225 60.8L225 69.7C225 74.1 222.3 75.8 218.8 75.8 214.9 75.8 212 73.8 212 70"/>
          <path class="a" d="M247 60.8L247 72.5C247 73.8 247.7 75 248.8 75.5L248.8 75.6 241.1 75.6 241.1 75.5C242.3 75 243 73.8 243 72.5L243 60.5 236.5 75.8 236.4 75.8 229.9 60.8 229.9 72.5C229.9 73.8 230.6 75 231.9 75.5L231.9 75.6 226.9 75.6 226.9 75.5C228.1 75 228.8 73.8 228.8 72.5L228.8 60.8C228.8 59.5 228.1 58.3 226.9 57.8L226.9 57.7 232.9 57.7 238 69.5 243 57.7 248.8 57.7 248.8 57.8C247.7 58.3 247 59.5 247 60.8"/>
        <path class="a" d="M57.8 56.1L35.5 56.1 35.5 58.1 12.3 58.1 11.4 56.1 12.9 54.1 15.3 54.1 14.4 52.1 16 50.1 18.4 50.1 17.4 48.1 19 46.1 21.6 46.1 20.5 44.1 22.1 42.1 24.7 42.1 23.7 40.1 25.2 38.1 27.7 38.1 26.7 36.1 29.8 32.1 35.5 32.1 35.5 34.1 43.3 34.1 42.3 36.1 35.5 36.1 35.5 38.1 46.4 38.1 45.4 40.1 35.5 40.1 35.5 42.1 49.5 42.1 48.5 44.1 35.5 44.1 35.5 46.1 52.6 46.1 51.6 48.1 35.5 48.1 35.5 50.1 55.8 50.1 54.8 52.1 35.5 52.1 35.5 54.1 58.8 54.1 57.8 56.1ZM34.8 12.6C15.6 12.6 0 27.9 0 46.8 0 65.6 15.6 80.9 34.8 80.9 54 80.9 69.6 65.6 69.6 46.8 69.6 27.9 54 12.6 34.8 12.6Z"/>
      </g>
    </g>
  </g>
</svg>