<?xml version="1.0" encoding="UTF-8"?>
<svg width="455px" height="60px" viewBox="0 0 455 60" version="1.1" xmlns="http://www.w3.org/2000/svg" xmlns:xlink="http://www.w3.org/1999/xlink">
    <!-- Generator: Sketch 51.3 (57544) - http://www.bohemiancoding.com/sketch -->
    <title>Logo</title>
    <desc>Created with Sketch.</desc>
    <defs>
        <polygon id="path-1" points="0 0 54 0 54 53 0 53"></polygon>
    </defs>
    <g id="Symbols" stroke="none" stroke-width="1" fill="none" fill-rule="evenodd">
        <g id="Header" transform="translate(-1.000000, -12.000000)">
            <g id="Logo" transform="translate(1.000000, 10.000000)">
                <text id="With-support-from-th" font-family="BentonSans-Regular, Benton Sans" font-size="9.5" font-weight="normal" fill="#1A1A1A">
                    <tspan x="354" y="19">WITH SUPPORT FROM </tspan>
                    <tspan x="354" y="32">THE NEW YORK CITY </tspan>
                    <tspan x="354" y="45">DEPARTMENT OF </tspan>
                    <tspan x="354" y="58">EDUCATION</tspan>
                </text>
                <polygon id="Fill-56" fill="#1A1A1A" points="337.001185 58.7685022 338.516383 58.7685022 338.516383 11.7685022 337.001185 11.7685022"></polygon>
                <g id="Museum-logo" transform="translate(225.000000, 11.000000)" fill="#1A1A1A">
                    <path d="M3.79620051,35.4964843 C3.60233503,36.0187534 3.35172843,36.6505561 3.35172843,38.0702601 L3.35172843,40.3450673 L8.12796447,40.3450673 L8.12796447,38.3533543 C8.12796447,36.8119462 7.88786548,36.096009 7.694,35.4964843 L10.2457741,35.4964843 C9.99096447,36.2298834 9.81443655,36.7669686 9.81443655,38.4877578 L9.81443655,43.6845202 C9.81443655,45.5386547 10.0093528,46.0937309 10.2457741,46.7556951 L7.694,46.7556951 C7.9335736,46.0635695 8.12796447,45.5386547 8.12796447,43.7437848 L8.12796447,41.763713 L3.35172843,41.763713 L3.35172843,43.6247265 C3.35172843,45.4047803 3.57396447,46.0937309 3.76835533,46.7556951 L1.2307665,46.7556951 C1.42463198,46.2307803 1.66420558,45.5386547 1.66420558,43.862843 L1.66420558,38.3835157 C1.66420558,36.7849596 1.40939594,36.006583 1.2307665,35.4964843 L3.79620051,35.4964843" id="Fill-1"></path>
                    <path d="M22.4692817,35.5118296 L21.6218426,37.2442601 C20.3714365,36.6775426 19.7147107,36.5283229 18.5399594,36.5733004 L18.5399594,40.4821166 L22.0384695,40.4821166 L21.0838528,42.0563318 C19.8045508,41.6806368 19.3879239,41.620843 18.5399594,41.5584036 L18.5399594,45.6672377 C19.9695203,45.6672377 20.7565406,45.6672377 23.1239061,44.8560538 L22.3043122,46.7287085 L16.4573503,46.7287085 C16.6512157,46.0693901 16.8739772,45.2761973 16.8739772,43.8363857 L16.8739772,38.3470045 C16.8739772,37.587148 16.7699518,36.4838744 16.4573503,35.5118296 L22.4692817,35.5118296" id="Fill-2"></path>
                    <path d="M29.0864518,43.8300359 C29.0864518,44.7999641 29.026033,45.6222601 28.7885609,46.7287085 L31.047698,46.7287085 C30.7492817,45.5328341 30.7350964,45.1719552 30.7350964,44.3073274 L30.7350964,41.5430583 C33.0357386,44.620583 33.7182081,45.4285919 35.2176447,46.7287085 L36.7470279,46.7287085 C35.4251701,45.1275067 34.0591802,43.4696861 33.0641091,41.7044484 C33.5705761,41.4361704 35.1708858,40.5387354 35.1708858,38.7142332 C35.1708858,37.2051031 33.8227589,35.466852 30.9583832,35.5118296 L28.7885609,35.5441076 C28.907297,35.9319731 29.0864518,36.5463139 29.0864518,37.8607175 L29.0864518,43.8300359 Z M30.7350964,36.471704 C32.9600838,36.6950045 33.480736,38.0432735 33.480736,38.8782691 C33.480736,40.598 31.7890102,41.0752915 30.7350964,41.3763767 L30.7350964,36.471704 L30.7350964,36.471704 Z" id="Fill-3"></path>
                    <path d="M43.9573528,35.5118296 C43.7482513,36.1706188 43.5407259,36.7849596 43.5407259,38.4724126 L43.5407259,43.633722 C43.5407259,44.9042063 43.6300406,45.5481794 43.9573528,46.7287085 L41.4428807,46.7287085 C41.6661675,46.0249417 41.8747437,45.3836143 41.8747437,43.5146637 L41.8747437,38.1739731 C41.8747437,36.9013722 41.7265863,36.2007803 41.4428807,35.5118296 L43.9573528,35.5118296" id="Fill-4"></path>
                    <path d="M57.0109619,35.5118296 L56.2355,37.2320897 C55.0181929,36.7368072 54.6162766,36.632565 53.322264,36.632565 L53.322264,44.0480448 C53.322264,44.9454798 53.3952919,45.8609058 53.6317132,46.7287085 L51.3583909,46.7287085 C51.5223096,46.0249417 51.6694162,45.2021166 51.6694162,43.8691928 L51.6694162,36.632565 C50.9265279,36.6177489 50.2729543,36.6177489 48.1152157,37.3993004 L48.7104721,35.5118296 L57.0109619,35.5118296" id="Fill-5"></path>
                    <path d="M64.3221599,35.4515067 L64.2359975,35.4515067 L59.9331294,44.0506906 C59.0095102,45.893713 58.6837741,46.2932197 58.3107538,46.7287085 L61.0359036,46.7287085 C60.9749594,45.8460897 61.4057716,44.8735157 61.5996371,44.4533722 L62.1644213,43.2400359 L66.0785076,43.2400359 L66.7320812,44.7518117 C67.1339975,45.6672377 67.1949416,46.2360717 67.1949416,46.7287085 L69.8418096,46.6985471 C69.4257081,46.1318296 68.9050558,45.4137758 68.1038503,43.6607085 L64.3221599,35.4515067 Z M64.2034239,38.913722 L65.5000635,41.9224574 L62.7917259,41.9224574 L64.2034239,38.913722 L64.2034239,38.913722 Z" id="Fill-6"></path>
                    <path d="M82.4998071,37.6136054 C81.755868,37.2230942 80.553797,36.5944664 78.961368,36.5944664 C77.0726244,36.5944664 74.9422056,37.9893004 74.9422056,41.0070314 C74.9422056,43.4665112 76.5945279,45.4460538 79.4646827,45.4460538 C80.4776168,45.4460538 80.9089543,45.2677309 81.430132,45.0555426 L81.430132,43.8120448 C81.430132,42.071148 81.1028198,41.620843 80.6856675,41.0514798 L83.4092411,41.0514798 C83.2905051,41.3943677 83.0955888,41.9044664 83.0955888,43.0013901 L83.0955888,44.3369596 C83.0955888,45.0883498 83.0955888,45.3121794 83.304165,46.0757399 C82.5460406,46.3768251 81.4432665,46.8086099 79.393231,46.8086099 C74.3789975,46.8086099 73.2331421,43.4813274 73.2331421,41.3499193 C73.2331421,39.9249238 73.7107132,38.4697668 74.6332817,37.3574978 C75.8216929,35.9229776 77.2339162,35.3716054 79.6012817,35.3716054 C80.9525609,35.3716054 81.8178629,35.5800897 82.4998071,35.7409507 L82.4998071,37.6136054" id="Fill-7"></path>
                    <path d="M95.4530685,35.5118296 L94.6056294,37.2442601 C93.354698,36.6775426 92.7016497,36.5283229 91.5268985,36.5733004 L91.5268985,40.4821166 L95.0222563,40.4821166 L94.0697411,42.0563318 C92.7909645,41.6806368 92.3748629,41.620843 91.5268985,41.5584036 L91.5268985,45.6672377 C92.9533071,45.6672377 93.7429543,45.6672377 96.1055914,44.8560538 L95.2907259,46.7287085 L89.4411371,46.7287085 C89.6376294,46.0693901 89.8598655,45.2761973 89.8598655,43.8363857 L89.8598655,38.3470045 C89.8598655,37.587148 89.7558401,36.4838744 89.4411371,35.5118296 L95.4530685,35.5118296" id="Fill-8"></path>
                    <path d="M3.07064975,0.887560538 C3.26451523,1.35268161 3.44419543,1.71197309 4.03682487,2.44272646 L7.08613452,6.25788341 L10.4138959,2.11465471 C10.7401574,1.71197309 10.8909416,1.53047534 11.217203,0.933596413 L13.4111929,0.933596413 C12.9483325,1.4870852 12.5169949,1.99400897 12.5169949,3.62590135 L12.5169949,9.14544395 C12.5169949,9.95186547 12.5311802,11.0149238 13.0234619,12.1060269 L10.340868,12.1060269 C10.7117868,11.2694439 10.8294721,10.400583 10.8294721,9.32429596 L10.8294721,4.00053812 L7.08613452,8.69460987 L3.31127411,4.00053812 L3.31127411,9.60897758 C3.31127411,9.7878296 3.31127411,11.0297399 3.78464213,12.1060269 L1.13829949,12.1060269 C1.36106091,11.5811121 1.64108883,10.8503587 1.64108883,9.11369507 L1.64108883,2.11465471 L0.541992386,0.887560538 L3.07064975,0.887560538" id="Fill-9"></path>
                    <path d="M22.9820533,0.887560538 C22.727769,1.62095964 22.6221675,2.02575785 22.6221675,3.57827803 L22.6221675,7.66065471 C22.6221675,8.36230493 22.6841624,8.78139013 22.8459797,9.20047534 C23.3981548,10.5609148 24.6911168,10.9625381 25.4056345,10.9625381 C26.612434,10.9625381 27.6537386,10.050287 27.9663401,9.00945291 C28.0267589,8.78456502 28.0561802,8.5924843 28.0561802,7.88871749 L28.0561802,3.46080717 C28.0561802,2.95282511 28.0561802,1.74160538 27.6537386,0.887560538 L30.0415939,0.887560538 C29.8613883,1.36749776 29.7426523,1.71197309 29.7426523,3.17718386 L29.7426523,9.16026009 C29.7426523,9.93810762 29.7426523,10.5942511 30.0415939,12.1060269 L28.0561802,12.1060269 C28.131835,11.462583 28.1465457,11.3281794 28.131835,10.994287 C27.477736,11.3974978 26.1816218,12.2060359 24.5876168,12.2060359 C22.2811954,12.2060359 20.9556599,10.4407982 20.9556599,7.8844843 L20.9556599,3.46080717 C20.9556599,1.75536323 20.794368,1.36749776 20.6005025,0.887560538 L22.9820533,0.887560538" id="Fill-10"></path>
                    <path d="M43.7866041,3.03166816 C43.2948477,2.64274439 42.6696447,2.14904933 41.6766751,2.14904933 C40.7162792,2.14904933 39.9613071,2.77767713 39.9613071,3.66029596 C39.9613071,4.7249417 40.8964848,5.27843049 42.285066,6.0890852 C43.8906294,7.01615247 44.3387792,7.8987713 44.3387792,8.97823318 C44.3387792,10.8344843 42.895033,12.18487 40.5691726,12.18487 C39.6959898,12.18487 39.1742868,12.0345919 38.6536345,11.8837848 L38.6536345,9.50314798 C39.1601015,10.0857399 39.8142005,10.8641166 40.8344898,10.8641166 C41.7954112,10.8641166 42.4936421,10.0857399 42.4936421,9.29307623 C42.4936421,8.51469955 41.8852513,8.02153363 41.5610914,7.81093274 C39.1900482,6.31238565 38.2370076,5.71286099 38.2370076,4.00530045 C38.2370076,2.22524664 39.7096497,0.748394619 41.5300939,0.748394619 C42.5367234,0.748394619 43.2512411,1.06535426 43.7866041,1.2918296 L43.7866041,3.03166816" id="Fill-11"></path>
                    <path d="M58.3133807,0.887560538 L57.4659416,2.62210762 C56.2181624,2.05644843 55.5619619,1.90458296 54.3872107,1.95061883 L54.3872107,5.85837668 L57.8820431,5.85837668 L56.9300533,7.43206278 C55.651802,7.05636771 55.2351751,6.9955157 54.3872107,6.93572197 L54.3872107,11.0445561 C55.8136193,11.0445561 56.6027411,11.0445561 58.9695812,10.2349596 L58.1510381,12.1060269 L52.3040761,12.1060269 C52.4968909,11.4472377 52.7201777,10.6551031 52.7201777,9.21529148 L52.7201777,3.72591031 C52.7201777,2.96393722 52.6166777,1.85960538 52.3040761,0.887560538 L58.3133807,0.887560538" id="Fill-12"></path>
                    <path d="M69.032198,0.887560538 C68.7779137,1.62095964 68.6738883,2.02575785 68.6738883,3.57827803 L68.6738883,7.66065471 C68.6738883,8.36230493 68.7343071,8.78139013 68.8987513,9.20047534 C69.4488249,10.5609148 70.7449391,10.9625381 71.4568299,10.9625381 C72.6631041,10.9625381 73.7075609,10.050287 74.0201624,9.00945291 C74.0779543,8.78456502 74.1073756,8.5924843 74.1073756,7.88871749 L74.1073756,3.46080717 C74.1073756,2.95282511 74.1073756,1.74160538 73.7075609,0.887560538 L76.0912132,0.887560538 C75.9152107,1.36749776 75.7933223,1.71197309 75.7933223,3.17718386 L75.7933223,9.16026009 C75.7933223,9.93810762 75.7933223,10.5942511 76.0912132,12.1060269 L74.1073756,12.1060269 C74.1819797,11.462583 74.1993173,11.3281794 74.1819797,10.994287 C73.5289315,11.3974978 72.2317665,12.2060359 70.6414391,12.2060359 C68.3318655,12.2060359 67.0068553,10.4407982 67.0068553,7.8844843 L67.0068553,3.46080717 C67.0068553,1.75536323 66.8445127,1.36749776 66.651698,0.887560538 L69.032198,0.887560538" id="Fill-13"></path>
                    <path d="M86.1774721,0.887560538 C86.3713376,1.35268161 86.5504924,1.71197309 87.1441726,2.44272646 L90.1898046,6.25788341 L93.5201929,2.11465471 C93.8475051,1.71197309 93.9972386,1.53047534 94.3245508,0.933596413 L96.5169645,0.933596413 C96.0551548,1.4870852 95.6232919,1.99400897 95.6232919,3.62590135 L95.6232919,9.14544395 C95.6232919,9.95186547 95.6374772,11.0149238 96.1292335,12.1060269 L93.4476904,12.1060269 C93.8180838,11.2694439 93.9378706,10.400583 93.9378706,9.32429596 L93.9378706,4.00053812 L90.1898046,8.69460987 L86.4138934,4.00053812 L86.4138934,9.60897758 C86.4138934,9.7878296 86.4138934,11.0297399 86.8919898,12.1060269 L84.2440711,12.1060269 C84.4673579,11.5811121 84.7473858,10.8503587 84.7473858,9.11369507 L84.7473858,2.11465471 L83.6488147,0.887560538 L86.1774721,0.887560538" id="Fill-14"></path>
                    <path d="M25.6898655,18.2166278 L29.5487868,18.2166278 C29.2803173,18.9801883 29.2188477,20.4602152 29.2367107,21.9243677 L29.2656066,25.3622422 C29.2656066,28.7244484 28.9824264,29.4530852 28.7885609,29.9330224 C28.0698401,31.7099013 26.2252284,31.8141435 26.0019416,31.8141435 C25.7045761,31.8141435 25.211769,31.6982601 25.0646624,31.6649238 C26.6260939,30.8574439 27.6537386,30.0229776 27.6080305,25.5268072 L27.5791345,22.3714978 C27.5791345,21.6545022 27.5791345,20.3395695 27.6080305,19.5484933 L26.907698,19.5167444 C26.4185685,19.5035157 25.7045761,19.6077578 25.2264797,19.6955964 L25.6898655,18.2166278" id="Fill-15"></path>
                    <path d="M42.0218503,18.2166278 L41.1733604,19.9464126 C39.9245305,19.3807534 39.2699061,19.2320628 38.0956802,19.2770404 L38.0956802,23.1842691 L41.5905127,23.1842691 L40.6385228,24.757426 C39.3597462,24.3817309 38.9431193,24.3229955 38.0956802,24.2637309 L38.0956802,28.372565 C39.5215635,28.372565 40.3122614,28.372565 42.6759492,27.560852 L41.860033,29.4324484 L36.0093934,29.4324484 C36.2043096,28.7747175 36.4260203,27.9799372 36.4260203,26.541713 L36.4260203,21.0512735 C36.4260203,20.2903587 36.3251472,19.1854978 36.0093934,18.2166278 L42.0218503,18.2166278" id="Fill-16"></path>
                    <path d="M49.338302,18.117148 C49.3235914,18.2213901 49.2778832,18.5362332 49.2778832,18.7283139 C49.2778832,19.254287 49.5747234,20.42 49.7228807,20.9867175 L51.0626015,26.1300359 L53.7709391,18.1621256 L53.8749645,18.1621256 L56.5228832,26.1300359 L57.9629518,20.7480717 C58.113736,20.1654798 58.3364975,19.2680448 58.3364975,18.7013274 L58.3039239,18.1621256 L60.4768985,18.1912287 C60.1359264,18.9680179 60.060797,19.2066637 59.8522208,19.9998565 L57.3093782,29.4350942 L55.9864695,29.4350942 L53.7993096,22.869426 L51.5979645,29.4350942 L50.2613959,29.4350942 L48.059,21.0316951 C47.9849213,20.716852 47.5819543,19.2066637 47.0933503,18.1467803 L49.338302,18.117148" id="Fill-17"></path>
                    <path d="M67.5973832,18.2166278 C67.3888071,18.8743587 67.1807563,19.4855247 67.1807563,21.1761525 L67.1807563,26.3374619 C67.1807563,27.6068879 67.2705964,28.2513901 67.5973832,29.4324484 L65.0834365,29.4324484 C65.3056726,28.7286816 65.5137234,28.0847085 65.5137234,26.2178744 L65.5137234,20.8793004 C65.5137234,19.6061704 65.3639898,18.903991 65.0834365,18.2166278 L67.5973832,18.2166278" id="Fill-18"></path>
                    <path d="M79.652769,20.3575605 C79.1615381,19.9702242 78.536335,19.4749417 77.5444162,19.4749417 C76.5834949,19.4749417 75.8290482,20.1046278 75.8290482,20.9867175 C75.8290482,22.0508341 76.7594975,22.6037937 78.1517563,23.4133901 C79.7573198,24.3436323 80.2028426,25.2283677 80.2028426,26.305713 C80.2028426,28.1619641 78.7585711,29.509704 76.4358629,29.509704 C75.5595279,29.509704 75.0415025,29.3604843 74.5213756,29.2117937 L74.5213756,26.8295695 C75.024165,27.4137489 75.6808909,28.193713 76.702231,28.193713 C77.6626269,28.193713 78.3598071,27.4137489 78.3598071,26.6205561 C78.3598071,25.8405919 77.7529924,25.3458386 77.4251548,25.1368251 C75.0562132,23.6388072 74.1015964,23.0392825 74.1015964,21.3327803 C74.1015964,19.551139 75.5768655,18.0769327 77.3962589,18.0769327 C78.4034137,18.0769327 79.1179315,18.3944215 79.652769,18.6193094 L79.652769,20.3575605" id="Fill-19"></path>
                    <path d="M89.5131142,18.1748251 C89.3197741,18.7013274 89.0644391,19.3262511 89.0644391,20.7480717 L89.0644391,23.0228789 L93.8448782,23.0228789 L93.8448782,21.0327534 C93.8448782,19.4929327 93.6042538,18.7743498 93.4109137,18.1748251 L95.9621624,18.1748251 C95.7073528,18.9087534 95.5318756,19.4468969 95.5318756,21.1682152 L95.5318756,26.362861 C95.5318756,28.2191121 95.7210127,28.77313 95.9621624,29.4324484 L93.4109137,29.4324484 C93.647335,28.7434978 93.8448782,28.2191121 93.8448782,26.4205381 L93.8448782,24.4457578 L89.0644391,24.4457578 L89.0644391,26.3025381 C89.0644391,28.0847085 89.2872005,28.77313 89.481066,29.4324484 L86.9471548,29.4324484 C87.1410203,28.9070045 87.377967,28.2191121 87.377967,26.541713 L87.377967,21.0639731 C87.377967,19.4633004 87.1263096,18.6849238 86.9471548,18.1748251 L89.5131142,18.1748251" id="Fill-20"></path>
                    <path d="M5.61139086,26.8935964 C4.12561421,26.8935964 2.58887563,25.644278 2.58887563,23.5536143 C2.58887563,22.1905291 3.46205838,20.7422511 5.08128173,20.7422511 C6.84340863,20.7422511 8.07174873,22.511722 8.07174873,24.0991659 C8.07174873,25.2595874 7.30837056,26.8935964 5.61139086,26.8935964 Z M5.48057107,19.4886996 C2.45753046,19.4886996 0.847238579,21.957704 0.847238579,23.7404036 C0.847238579,25.9114978 2.50376396,28.1572018 5.27514721,28.1572018 C7.8411066,28.1572018 9.70358122,26.3231749 9.70358122,23.795435 C9.70358122,21.7206457 8.38172335,19.4886996 5.48057107,19.4886996 L5.48057107,19.4886996 Z" id="Fill-21"></path>
                    <path d="M15.1134264,20.7263767 C15.9839822,20.7565381 16.3543756,20.7999283 17.1576827,21.1184753 L17.3121447,21.1793274 L18.2084442,19.5527265 L13.1879061,19.5527265 L13.267764,19.8188879 C13.3928046,20.2385022 13.5220482,20.6724036 13.5220482,21.7915516 L13.5220482,25.6246996 C13.5220482,26.6105022 13.3796701,27.3878206 13.2593579,27.8666996 L13.1999898,28.1037578 L15.4255025,28.1037578 L15.3540508,27.8592915 C15.1854036,27.2809327 15.1134264,26.7433184 15.1134264,26.0612466 L15.1134264,24.4240628 C15.9288173,24.4314709 16.392203,24.5547623 16.9170584,24.7764753 L17.0767741,24.8442063 L17.9200102,23.2350673 L15.1134264,23.2350673 L15.1134264,20.7263767" id="Fill-22"></path>
                </g>
                <text id="a-resource-developed" font-family="BentonSans-Regular, Benton Sans" font-size="5" font-weight="normal" fill="#1A1A1A">
                    <tspan x="226" y="6">a resource developed by:</tspan>
                </text>
                <polygon id="Fill-56" fill="#1A1A1A" points="209.001185 58.7685022 210.516383 58.7685022 210.516383 11.7685022 209.001185 11.7685022"></polygon>
                <g id="Text-label" transform="translate(68.000000, 12.000000)" fill="#1A1A1A">
                    <path d="M13,0 L13,0.0390965092 C12.1299671,0.451334702 11.5806479,1.35342916 11.5806479,2.3923614 L11.5806479,14 L11.5240514,14 L2.25165393,2.56887064 L2.25165393,11.3333881 C2.25165393,12.3728953 2.80041829,13.2744148 3.67100602,13.686078 L3.67100602,13.7257495 L0,13.7257495 L0,13.686078 C0.870587733,13.2744148 1.41935209,12.3728953 1.41935209,11.3333881 L1.41935209,2.3923614 C1.41935209,1.35342916 0.870587733,0.451334702 0,0.0390965092 L0,0 L4.10657732,0 L10.7672116,8.19589322 L10.7672116,2.3923614 C10.7672116,1.35342916 10.2373127,0.451334702 9.34785949,0.0390965092 L9.34785949,0 L13,0 Z" id="Fill-1"></path>
                    <path d="M14,13.9601206 C14.906406,13.5402145 15.4786904,12.620057 15.4786904,11.5603217 L15.4786904,2.43967828 C15.4786904,1.37994303 14.906406,0.459785523 14,0.0398793566 L14,0 L24.3889852,0 L24.6647223,4.2799933 L24.6254138,4.2799933 C23.8375112,2.0397118 22.7923695,0.740113941 21.1558674,0.740113941 L18.5539965,0.740113941 L18.5539965,6.02002346 L19.3817857,6.02002346 C20.761627,6.02002346 21.2743707,5.42007373 21.9443481,3.95978552 L21.9842346,3.95978552 L21.9842346,9.2402815 L21.9443481,9.2402815 C21.3529875,7.56007038 20.761627,6.7601374 19.3817857,6.7601374 L18.5539965,6.7601374 L18.5539965,13.2604725 L21.1558674,13.2604725 C23.107415,13.2604725 24.1519786,11.6400804 24.9606916,9.35991957 L25,9.35991957 L24.7046088,14 L14,14 L14,13.9601206 Z" id="Fill-4"></path>
                    <path d="M45,0 L45,0.0390965092 C44.3512672,0.529527721 43.8201713,1.45117043 43.3086815,2.76492813 L38.9428538,14 L38.8644293,14 L35.2263357,5.13716632 L31.6274544,14 L31.5490298,14 L27.0257763,3.0587269 C26.2784361,1.27466119 25.6689156,0.431211499 25,0.0390965092 L25,0 L31.174783,0 L31.174783,0.0390965092 C30.0935617,0.451334702 29.6212842,1.25511294 30.1523801,2.58841889 L32.7680708,9.27449692 L34.8330594,4.1373306 L34.3809647,3.0587269 C33.6330479,1.27466119 33.0235274,0.431211499 32.3551884,0.0390965092 L32.3551884,0 L38.5697604,0 L38.5697604,0.0390965092 C37.4677796,0.451334702 36.9960788,1.23556468 37.5271747,2.58841889 L40.0638641,9.15663244 L42.5613413,2.56887064 C43.0728311,1.23556468 42.5417351,0.431211499 41.4997261,0.0390965092 L41.4997261,0 L45,0 Z" id="Fill-6"></path>
                    <path d="M60,0 L60,0.0398776861 C59.3236724,0.560046915 58.7465474,1.53998241 58.0690527,2.82017342 L55.6018284,7.40024295 L55.6018284,11.5598375 C55.6018284,12.6201148 56.1789535,13.5396473 57.1143746,13.9595359 L57.1143746,14 L50.9848279,14 L50.9848279,13.9595359 C51.920249,13.5396473 52.4973741,12.6201148 52.4973741,11.5598375 L52.4973741,7.79960625 L50.2087143,3.09990366 C49.3333982,1.3200687 48.6961681,0.43982742 48,0.0398776861 L48,0 L54.3477923,0 L54.3477923,0.0398776861 C53.2139662,0.4603527 52.7757246,1.28019101 53.3931142,2.62019855 L55.2236919,6.53994052 L57.3133632,2.60025971 C57.9698502,1.34000754 57.6313947,0.4603527 56.4975686,0.0398776861 L56.4975686,0 L60,0 Z" id="Fill-8"></path>
                    <path d="M68.7163893,8.24200379 C68.7163893,3.98604445 66.6034813,0.692856855 64.7921011,0.692856855 C63.6789377,0.692856855 62.2825041,2.2530553 62.2825041,5.75799621 C62.2825041,10.0133909 64.4335873,13.3065785 66.1885347,13.3065785 C67.320509,13.3065785 68.7163893,11.7271811 68.7163893,8.24200379 M59,7.02908079 C59,2.3682491 62.5275993,0 65.4526961,0 C68.1509554,0 72,2.17569475 72,6.97091921 C72,11.6311862 68.4901051,14 65.5091288,14 C62.8490446,14 59,11.8237406 59,7.02908079" id="Fill-10"></path>
                    <path d="M77.5146181,0.659768767 L77.5146181,6.49974866 C77.8456102,6.56015416 78.2159789,6.58009383 78.5852063,6.58009383 C79.8309921,6.58009383 80.9980246,5.89979893 80.9980246,3.9797252 C80.9980246,2.05965147 79.5776119,0.659768767 77.8650132,0.659768767 L77.5146181,0.659768767 Z M86,13.9601206 L86,14 L81.9327919,14 L79.2660228,9.33997989 C78.3323968,7.59994973 78.0596137,7.21992292 77.5146181,7.15951743 L77.5146181,11.5597353 C77.5146181,12.620057 78.0596137,13.5402145 78.9550044,13.9601206 L78.9550044,14 L73,14 L73,13.9601206 C73.89482,13.5402145 74.4592186,12.620057 74.4592186,11.5597353 L74.4592186,2.43967828 C74.4592186,1.37994303 73.89482,0.459785523 73,0.0398793566 L73,0 L79.928007,0 C81.9133889,0 84.1321773,1.21983914 84.1321773,3.75980228 C84.1321773,5.33972855 83.1392011,6.53962802 81.2125988,7 L83.6065847,10.9199062 C84.6377963,12.6001173 85.3385865,13.6000335 86,13.9601206 Z" id="Fill-12"></path>
                    <path d="M99,13.9601206 L99,14 L93.3696469,14 L93.3696469,13.9601206 C94.1737479,13.4399296 94.0245559,12.5203586 93.3888444,11.5603217 L90.339184,6.89971515 L90.339184,11.5603217 C90.339184,12.620057 90.8630016,13.5402145 91.7235982,13.9601206 L91.7235982,14 L86,14 L86,13.9601206 C86.8600481,13.5402145 87.4025147,12.620057 87.4025147,11.5603217 L87.4025147,2.43967828 C87.4025147,1.37994303 86.8600481,0.459785523 86,0.0398793566 L86,0 L91.7235982,0 L91.7235982,0.0398793566 C90.8630016,0.459785523 90.339184,1.37994303 90.339184,2.43967828 L90.339184,6.34023123 L94.1556474,2.57984249 C95.2778786,1.48022788 94.9597485,0.760053619 93.6131809,0.0398793566 L93.6131809,0 L98.869457,0 L98.869457,0.0398793566 C98.2145479,0.320207775 96.8674318,1.03979558 95.072191,2.73994638 L92.4904012,5.18021113 L96.3622632,10.8401475 C97.4104468,12.3801944 98.2891439,13.5202748 99,13.9601206" id="Fill-14"></path>
                    <path d="M103,1.52390038 C103,2.79072103 101.50929,4.41805583 99.7693989,5 L99.7198543,4.9829283 C100.36612,4.45219924 100.986885,3.61317534 101.211293,2.75707973 C99.9930783,2.82536654 99,2.17463346 99,1.36975296 C99,0.616087568 99.8939891,0 101.011658,0 C102.130783,0 103,0.582446274 103,1.52390038" id="Fill-16"></path>
                    <path d="M105.980107,13.592338 C105.137239,13.5729798 104.627264,13.747204 104.2547,13.9612835 L104.2547,8.60189516 L104.293796,8.60189516 C105.156787,10.3498312 106.686713,13.2040343 109.627551,13.2040343 C110.999368,13.2040343 111.960674,12.4855016 111.960674,11.1258693 C111.960674,9.78616455 110.313459,9.14563423 107.921693,8.3303103 C104.82332,7.30090691 104,6.01927691 104,4.1745496 C104,1.1654805 106.627494,0 108.66682,0 C110.313459,0 111.078135,0.291512465 112.235497,0.291512465 C112.548841,0.291512465 112.862761,0.252795966 113.117461,0.194151857 L113.372161,4.77693277 L113.333065,4.77693277 C111.803714,2.17495628 110.313459,0.757818537 108.451216,0.757818537 C107.157017,0.757818537 106.019203,1.47578185 106.019203,2.87413071 C106.019203,4.19447721 107.254758,4.67957217 109.725867,5.57289845 C112.313689,6.46622473 114,7.51441702 114,9.80609216 C114,13.048599 111.372506,14 109.411947,14 C108.235037,14 106.999483,13.6116963 105.980107,13.592338" id="Fill-18"></path>
                    <path d="M12.5452823,18.4401625 L12.5452823,27.5598375 C12.5452823,28.6201148 13.0959186,29.5402337 14,29.9601223 L14,30 L8.00296528,30 L8.00296528,29.9601223 C8.90704666,29.5402337 9.47786335,28.6201148 9.47786335,27.5598375 L9.47786335,22.7604407 L4.54231704,22.7604407 L4.54231704,27.5598375 C4.54231704,28.6201148 5.09237676,29.5402337 5.9976113,29.9601223 L5.9976113,30 L0,30 L0,29.9601223 C0.904657963,29.5402337 1.47489807,28.6201148 1.47489807,27.5598375 L1.47489807,18.4401625 C1.47489807,17.3804717 0.904657963,16.4603527 0,16.0404641 L0,16 L5.9976113,16 L5.9976113,16.0404641 C5.09237676,16.4603527 4.54231704,17.3804717 4.54231704,18.4401625 L4.54231704,22.0197713 L9.47786335,22.0197713 L9.47786335,18.4401625 C9.47786335,17.3804717 8.90704666,16.4603527 8.00296528,16.0404641 L8.00296528,16 L14,16 L14,16.0404641 C13.0959186,16.4603527 12.5452823,17.3804717 12.5452823,18.4401625" id="Fill-20"></path>
                    <path d="M23.7163893,24.2420038 C23.7163893,19.9860444 21.6034813,16.6928569 19.7921011,16.6928569 C18.6789377,16.6928569 17.2825041,18.2530553 17.2825041,21.7579962 C17.2825041,26.0133909 19.4335873,29.3065785 21.1885347,29.3065785 C22.320509,29.3065785 23.7163893,27.7271811 23.7163893,24.2420038 M14,23.0290808 C14,18.3682491 17.5275993,16 20.4526961,16 C23.1509554,16 27,18.1756948 27,22.9709192 C27,27.6311862 23.4901051,30 20.5091288,30 C17.8490446,30 14,27.8237406 14,23.0290808" id="Fill-23"></path>
                    <path d="M41,24.5599866 L40.5751372,30 L29,30 L29,29.9601206 C29.9310191,29.5402145 30.5178757,28.620057 30.5178757,27.5603217 L30.5178757,18.4396783 C30.5178757,17.379943 29.9310191,16.4597855 29,16.0398794 L29,16 L35.192553,16 L35.192553,16.0398794 C34.2615339,16.4597855 33.694259,17.379943 33.694259,18.4396783 L33.694259,29.2604725 L36.2446225,29.2604725 C38.9356179,29.2604725 40.0897493,26.8999665 40.9596499,24.5599866 L41,24.5599866 Z" id="Fill-25"></path>
                    <path d="M50.7163893,24.2420038 C50.7163893,19.9860444 48.6034813,16.6928569 46.7921011,16.6928569 C45.6789377,16.6928569 44.2825041,18.2530553 44.2825041,21.7579962 C44.2825041,26.0133909 46.4335873,29.3065785 48.1885347,29.3065785 C49.320509,29.3065785 50.7163893,27.7271811 50.7163893,24.2420038 M41,23.0290808 C41,18.3682491 44.5275993,16 47.4526961,16 C50.1509554,16 54,18.1756948 54,22.9709192 C54,27.6311862 50.4901051,30 47.5091288,30 C44.8490446,30 41,27.8237406 41,23.0290808" id="Fill-27"></path>
                    <path d="M56,23.0195618 C56,18.3400429 59.6965,16 63.1714469,16 C64.5457866,16 65.1713482,16.1740715 66.3034013,16.1740715 C66.7476922,16.1740715 67.0504023,16.135515 67.2524066,16.0776801 L67.535568,20.7180754 L67.4946932,20.7180754 C65.9189416,18.204528 64.2424841,16.6962861 62.5251518,16.6962861 C60.8688355,16.6962861 59.2930839,18.0497347 59.2930839,21.5691548 C59.2930839,25.3204811 61.3534087,27.4858855 63.8988991,27.4858855 C65.2726465,27.4858855 66.5658291,26.964238 67.9591252,25.3012029 L68,25.3012029 C67.1315595,28.0857802 65.3733524,30 62.545293,30 C59.8179395,30 56,27.7183589 56,23.0195618" id="Fill-29"></path>
                    <path d="M74.0785696,25.4636743 L72.1109806,20.5363257 L70.2406682,25.4636743 L74.0785696,25.4636743 Z M80,29.9610124 L80,30 L73.8472549,30 L73.8472549,29.9610124 C74.9467067,29.5504955 75.3708779,28.7483823 74.8499956,27.4193628 L74.3681371,26.1872389 L69.9511007,26.1872389 L69.4884712,27.4382832 C68.9868181,28.7684495 69.353302,29.5504955 70.4527539,29.9610124 L70.4527539,30 L67,30 L67,29.9610124 C67.6362569,29.4524531 68.215392,28.5534442 68.7362743,27.2433451 L73.210998,16 L73.2879144,16 L77.9357,26.9497911 C78.687897,28.7288885 79.3247194,29.5699894 80,29.9610124 Z" id="Fill-31"></path>
                    <path d="M80.4660737,25.5368586 L80.4660737,18.399061 C80.4660737,17.3572193 79.91172,16.4525986 79,16.0397826 L79,16 L85.0636063,16 L85.0636063,16.0397826 C84.1524674,16.4525986 83.5771947,17.3572193 83.5771947,18.399061 L83.5771947,25.2416605 C83.5771947,27.8177251 84.6876453,28.8993493 86.5500179,28.8993493 C88.5512694,28.8993493 89.6611389,27.6407215 89.6611389,25.2220575 L89.6611389,18.399061 C89.6611389,17.3572193 89.0864473,16.4525986 88.1753084,16.0397826 L88.1753084,16 L92,16 L92,16.0397826 C91.0876989,16.4525986 90.5333453,17.3572193 90.5333453,18.399061 L90.5333453,25.2612635 C90.5333453,28.6629602 88.4327284,30 85.7179063,30 C82.7055695,30 80.4660737,28.4663537 80.4660737,25.5368586" id="Fill-33"></path>
                    <path d="M93.9802208,29.592338 C93.1373045,29.5729798 92.6272999,29.747204 92.2547148,29.9612835 L92.2547148,24.6018952 L92.2938132,24.6018952 C93.1568537,26.3498312 94.6868675,29.2040343 97.6278749,29.2040343 C98.99977,29.2040343 99.9611316,28.4855016 99.9611316,27.1258693 C99.9611316,25.7861645 98.3138224,25.1456342 95.9219181,24.3303103 C92.8233671,23.3009069 92,22.0192769 92,20.1745496 C92,17.1654805 94.6276449,16 96.6670883,16 C98.3138224,16 99.0785419,16.2915125 100.235971,16.2915125 C100.549333,16.2915125 100.86327,16.252796 101.117985,16.1941519 L101.3727,20.7769328 L101.333602,20.7769328 C99.8041628,18.1749563 98.3138224,16.7578185 96.4514719,16.7578185 C95.1571987,16.7578185 94.0193192,17.4757819 94.0193192,18.8741307 C94.0193192,20.1944772 95.2549448,20.6795722 97.726196,21.5728985 C100.314167,22.4662247 102,23.514417 102,25.8060922 C102,29.048599 99.3729301,30 97.4122585,30 C96.2352806,30 94.999655,29.6116963 93.9802208,29.592338" id="Fill-35"></path>
                    <path d="M106.071185,29.9601206 C106.948907,29.5402145 107.502727,28.620057 107.502727,27.5603217 L107.502727,16.7401139 L106.319006,16.7401139 C104.812503,16.7401139 103.915202,17.599866 103.03804,19.6401642 L103,19.6401642 L103.30544,16 L114.67554,16 L115,19.6401642 L114.96196,19.6401642 C114.084238,17.599866 113.187497,16.7401139 111.661414,16.7401139 L110.497273,16.7401139 L110.497273,27.5603217 C110.497273,28.620057 111.031514,29.5402145 111.909794,29.9601206 L111.909794,30 L106.071185,30 L106.071185,29.9601206 Z" id="Fill-37"></path>
                    <path d="M0,39.0195618 C0,34.3400429 3.69649998,32 7.17144691,32 C8.54578664,32 9.17134818,32.1740715 10.3034013,32.1740715 C10.7476922,32.1740715 11.0504023,32.135515 11.2524066,32.0776801 L11.535568,36.7180754 L11.4946932,36.7180754 C9.9189416,34.204528 8.24248408,32.6962861 6.5251518,32.6962861 C4.86883546,32.6962861 3.29308387,34.0497347 3.29308387,37.5691548 C3.29308387,41.3204811 5.3534087,43.4858855 7.89889915,43.4858855 C9.27264649,43.4858855 10.5658291,42.964238 11.9591252,41.3012029 L12,41.3012029 C11.1315595,44.0857802 9.37335242,46 6.54529299,46 C3.81793948,46 0,43.7183589 0,39.0195618" id="Fill-39"></path>
                    <path d="M13.4660737,41.5368586 L13.4660737,34.399061 C13.4660737,33.3572193 12.91172,32.4525986 12,32.0397826 L12,32 L18.0636063,32 L18.0636063,32.0397826 C17.1524674,32.4525986 16.5771947,33.3572193 16.5771947,34.399061 L16.5771947,41.2416605 C16.5771947,43.8177251 17.6876453,44.8993493 19.5500179,44.8993493 C21.5512694,44.8993493 22.6611389,43.6407215 22.6611389,41.2220575 L22.6611389,34.399061 C22.6611389,33.3572193 22.0864473,32.4525986 21.1753084,32.0397826 L21.1753084,32 L25,32 L25,32.0397826 C24.0876989,32.4525986 23.5333453,33.3572193 23.5333453,34.399061 L23.5333453,41.2612635 C23.5333453,44.6629602 21.4327284,46 18.7179063,46 C15.7055695,46 13.4660737,44.4663537 13.4660737,41.5368586" id="Fill-42"></path>
                    <path d="M29.5146181,32.6597688 L29.5146181,38.4997487 C29.8456102,38.5601542 30.2159789,38.5800938 30.5852063,38.5800938 C31.8309921,38.5800938 32.9980246,37.8997989 32.9980246,35.9797252 C32.9980246,34.0596515 31.5776119,32.6597688 29.8650132,32.6597688 L29.5146181,32.6597688 Z M38,45.9601206 L38,46 L33.9327919,46 L31.2660228,41.3399799 C30.3323968,39.5999497 30.0596137,39.2199229 29.5146181,39.1595174 L29.5146181,43.5597353 C29.5146181,44.620057 30.0596137,45.5402145 30.9550044,45.9601206 L30.9550044,46 L25,46 L25,45.9601206 C25.89482,45.5402145 26.4592186,44.620057 26.4592186,43.5597353 L26.4592186,34.4396783 C26.4592186,33.379943 25.89482,32.4597855 25,32.0398794 L25,32 L31.928007,32 C33.9133889,32 36.1321773,33.2198391 36.1321773,35.7598023 C36.1321773,37.3397286 35.1392011,38.539628 33.2125988,39 L35.6065847,42.9199062 C36.6377963,44.6001173 37.3385865,45.6000335 38,45.9601206 Z" id="Fill-44"></path>
                    <path d="M42.5146181,32.6597688 L42.5146181,38.4997487 C42.8456102,38.5601542 43.2159789,38.5800938 43.5852063,38.5800938 C44.8309921,38.5800938 45.9980246,37.8997989 45.9980246,35.9797252 C45.9980246,34.0596515 44.5776119,32.6597688 42.8650132,32.6597688 L42.5146181,32.6597688 Z M51,45.9601206 L51,46 L46.9327919,46 L44.2660228,41.3399799 C43.3323968,39.5999497 43.0596137,39.2199229 42.5146181,39.1595174 L42.5146181,43.5597353 C42.5146181,44.620057 43.0596137,45.5402145 43.9550044,45.9601206 L43.9550044,46 L38,46 L38,45.9601206 C38.89482,45.5402145 39.4592186,44.620057 39.4592186,43.5597353 L39.4592186,34.4396783 C39.4592186,33.379943 38.89482,32.4597855 38,32.0398794 L38,32 L44.928007,32 C46.9133889,32 49.1321773,33.2198391 49.1321773,35.7598023 C49.1321773,37.3397286 48.1392011,38.539628 46.2125988,39 L48.6065847,42.9199062 C49.6377963,44.6001173 50.3385865,45.6000335 51,45.9601206 Z" id="Fill-46"></path>
                    <path d="M51,45.9601206 C51.9014948,45.5402145 52.4706784,44.620057 52.4706784,43.5603217 L52.4706784,34.4396783 C52.4706784,33.379943 51.9014948,32.4597855 51,32.0398794 L51,32 L57,32 L57,32.0398794 C56.0973553,32.4597855 55.5482944,33.379943 55.5482944,34.4396783 L55.5482944,43.5603217 C55.5482944,44.620057 56.0973553,45.5402145 57,45.9601206 L57,46 L51,46 L51,45.9601206 Z" id="Fill-48"></path>
                    <path d="M58,39.0195618 C58,34.3400429 61.6965,32 65.1714469,32 C66.5457866,32 67.1713482,32.1740715 68.3034013,32.1740715 C68.7476922,32.1740715 69.0504023,32.135515 69.2524066,32.0776801 L69.535568,36.7180754 L69.4946932,36.7180754 C67.9189416,34.204528 66.2424841,32.6962861 64.5251518,32.6962861 C62.8688355,32.6962861 61.2930839,34.0497347 61.2930839,37.5691548 C61.2930839,41.3204811 63.3534087,43.4858855 65.8988991,43.4858855 C67.2726465,43.4858855 68.5658291,42.964238 69.9591252,41.3012029 L70,41.3012029 C69.1315595,44.0857802 67.3733524,46 64.545293,46 C61.8179395,46 58,43.7183589 58,39.0195618" id="Fill-50"></path>
                    <path d="M71.4660737,41.5368586 L71.4660737,34.399061 C71.4660737,33.3572193 70.91172,32.4525986 70,32.0397826 L70,32 L76.0636063,32 L76.0636063,32.0397826 C75.1524674,32.4525986 74.5771947,33.3572193 74.5771947,34.399061 L74.5771947,41.2416605 C74.5771947,43.8177251 75.6876453,44.8993493 77.5500179,44.8993493 C79.5512694,44.8993493 80.6611389,43.6407215 80.6611389,41.2220575 L80.6611389,34.399061 C80.6611389,33.3572193 80.0864473,32.4525986 79.1753084,32.0397826 L79.1753084,32 L83,32 L83,32.0397826 C82.0876989,32.4525986 81.5333453,33.3572193 81.5333453,34.399061 L81.5333453,41.2612635 C81.5333453,44.6629602 79.4327284,46 76.7179063,46 C73.7055695,46 71.4660737,44.4663537 71.4660737,41.5368586" id="Fill-52"></path>
                    <path d="M95,40.5602145 L94.5751372,46 L83,46 L83,45.9601223 C83.9310191,45.5402337 84.5178757,44.6201148 84.5178757,43.5598375 L84.5178757,34.4401625 C84.5178757,33.3804717 83.9310191,32.4603527 83,32.0404641 L83,32 L89.192553,32 L89.192553,32.0404641 C88.2615339,32.4603527 87.694259,33.3804717 87.694259,34.4401625 L87.694259,45.2599171 L90.2446225,45.2599171 C92.9356179,45.2599171 94.0897493,42.9000963 94.9596499,40.5602145 L95,40.5602145 Z" id="Fill-54"></path>
                    <path d="M96.4660737,41.5368586 L96.4660737,34.399061 C96.4660737,33.3572193 95.91172,32.4525986 95,32.0397826 L95,32 L101.063606,32 L101.063606,32.0397826 C100.152467,32.4525986 99.5771947,33.3572193 99.5771947,34.399061 L99.5771947,41.2416605 C99.5771947,43.8177251 100.687645,44.8993493 102.550018,44.8993493 C104.551269,44.8993493 105.661139,43.6407215 105.661139,41.2220575 L105.661139,34.399061 C105.661139,33.3572193 105.086447,32.4525986 104.175308,32.0397826 L104.175308,32 L108,32 L108,32.0397826 C107.087699,32.4525986 106.533345,33.3572193 106.533345,34.399061 L106.533345,41.2612635 C106.533345,44.6629602 104.432728,46 101.717906,46 C98.7055695,46 96.4660737,44.4663537 96.4660737,41.5368586" id="Fill-56"></path>
                    <path d="M123.551029,34.4125735 L123.551029,43.4291394 C123.551029,44.477429 124.098916,45.3871449 125,45.8022861 L125,45.8417129 L119.007128,45.8417129 L119.007128,45.8022861 C119.907638,45.3871449 120.4762,44.477429 120.4762,43.4291394 L120.4762,34.1754328 L115.422891,46 L115.383264,46 L110.329955,34.4125735 L110.329955,43.4291394 C110.329955,44.477429 110.898517,45.3871449 111.85818,45.8022861 L111.85818,45.8417129 L108,45.8417129 L108,45.8022861 C108.90051,45.3871449 109.468498,44.477429 109.468498,43.4291394 L109.468498,34.4125735 C109.468498,33.3648637 108.90051,32.4551479 108,32.0400066 L108,32 L112.680585,32 L116.617445,41.1551396 L120.495726,32 L125,32 L125,32.0400066 C124.098916,32.4551479 123.551029,33.3648637 123.551029,34.4125735" id="Fill-58"></path>
                </g>
                <g id="mark" transform="translate(0.000000, 9.000000)">
                    <mask id="mask-2" fill="white">
                        <use xlink:href="#path-1"></use>
                    </mask>
                    <g id="Clip-2"></g>
                    <path d="M44.8372305,33.708055 L27.5216314,33.708055 L27.5216314,35.2637174 L9.50522628,35.2647361 L8.80800889,33.7111113 L10.0009684,32.162071 L11.8875566,32.162071 L11.1939278,30.609465 L12.3776594,29.067556 L14.3067984,29.067556 L13.5316567,27.5597759 L14.765629,25.9547032 L16.7383441,25.9547032 L15.9180883,24.407191 L17.1459087,22.845416 L19.1873202,22.845416 L18.3793683,21.3040165 L19.5205491,19.7407133 L21.4701945,19.7407133 L20.708382,18.204917 L23.0932756,15.1093833 L27.5216314,15.1093833 L27.5216314,16.6624987 L33.5940873,16.6624987 L32.7933126,18.2069545 L27.5216314,18.2069545 L27.5216314,19.764145 L36.0010253,19.764145 L35.2002506,21.3075822 L27.5216314,21.3075822 L27.5216314,22.8668102 L38.4197545,22.8668102 L37.6189798,24.4102473 L27.5216314,24.4102473 L27.5216314,25.9669284 L40.8318191,25.9669284 L40.0300191,27.5113843 L27.5216314,27.5113843 L27.5216314,29.0706123 L43.293099,29.0706123 L42.4918117,30.61354 L27.5216314,30.61354 L27.5216314,32.1641085 L45.6390305,32.1641085 L44.8372305,33.708055 Z M27.0002563,0 C12.0890319,0 0,11.8645997 0,26.5002547 C0,41.1354003 12.0890319,53 27.0002563,53 C41.9114807,53 54,41.1354003 54,26.5002547 C54,11.8645997 41.9114807,0 27.0002563,0 Z" id="Fill-1" fill="#1A1A1A" mask="url(#mask-2)"></path>
                </g>
            </g>
        </g>
    </g>
</svg>